<?xml version="1.0" encoding="UTF-8" standalone="no"?>
<!DOCTYPE svg PUBLIC "-//W3C//DTD SVG 1.1//EN"
 "http://www.w3.org/Graphics/SVG/1.1/DTD/svg11.dtd">
<!-- Generated by graphviz version 2.26.3 (20100126.1600)
 -->
<!-- Title: Lossless2Lossy Pages: 1 -->
<svg width="236pt" height="100pt"
 viewBox="0.00 0.00 236.00 100.00" xmlns="http://www.w3.org/2000/svg" xmlns:xlink="http://www.w3.org/1999/xlink">
<g id="graph1" class="graph" transform="scale(1 1) rotate(0) translate(4 96)">
<title>Lossless2Lossy</title>
<polygon fill="white" stroke="white" points="-4,5 -4,-96 233,-96 233,5 -4,5"/>
<g id="graph2" class="cluster"><title>cluster_a</title>
<polygon fill="none" stroke="black" points="8,-8 8,-84 78,-84 78,-8 8,-8"/>
<text text-anchor="middle" x="43" y="-67.4" font-family="Times New Roman,serif" font-size="14.00">a: A</text>
</g>
<g id="graph3" class="cluster"><title>cluster_b</title>
<polygon fill="none" stroke="black" points="150,-8 150,-84 220,-84 220,-8 150,-8"/>
<text text-anchor="middle" x="185" y="-67.4" font-family="Times New Roman,serif" font-size="14.00">b: B</text>
</g>
<!-- a_Out -->
<g id="node2" class="node"><title>a_Out</title>
<polygon fill="none" stroke="black" points="70,-52 16,-52 16,-16 70,-16 70,-52"/>
<text text-anchor="middle" x="43" y="-29.4" font-family="Times New Roman,serif" font-size="14.00">Out</text>
</g>
<!-- b_In -->
<g id="node4" class="node"><title>b_In</title>
<polygon fill="none" stroke="black" points="212,-52 158,-52 158,-16 212,-16 212,-52"/>
<text text-anchor="middle" x="185" y="-29.4" font-family="Times New Roman,serif" font-size="14.00">In</text>
</g>
<!-- a_Out&#45;&gt;b_In -->
<g id="edge4" class="edge"><title>a_Out&#45;&gt;b_In</title>
<path fill="none" stroke="black" stroke-dasharray="5,2" d="M70.0434,-34C91.9133,-34 122.957,-34 147.272,-34"/>
<polygon fill="black" stroke="black" points="147.574,-37.5001 157.574,-34 147.574,-30.5001 147.574,-37.5001"/>
<text text-anchor="middle" x="114" y="-37.4" font-family="Times New Roman,serif" font-size="14.00">C(String)</text>
</g>
</g>
</svg>
