<?xml version="1.0" encoding="UTF-8" standalone="no"?>
<!DOCTYPE svg PUBLIC "-//W3C//DTD SVG 1.1//EN"
 "http://www.w3.org/Graphics/SVG/1.1/DTD/svg11.dtd">
<!-- Generated by graphviz version 2.26.3 (20100126.1600)
 -->
<!-- Title: a_A Pages: 1 -->
<svg width="256pt" height="452pt"
 viewBox="0.00 0.00 255.94 452.00" xmlns="http://www.w3.org/2000/svg" xmlns:xlink="http://www.w3.org/1999/xlink">
<g id="graph1" class="graph" transform="scale(1 1) rotate(0) translate(4 448)">
<title>a_A</title>
<polygon fill="white" stroke="white" points="-4,5 -4,-448 252.941,-448 252.941,5 -4,5"/>
<!-- Initial_extra -->
<g id="node1" class="node"><title>Initial_extra</title>
<ellipse fill="black" stroke="black" cx="177" cy="-437" rx="7.2" ry="7.2"/>
</g>
<!-- Initial -->
<g id="node2" class="node"><title>Initial</title>
<polyline fill="none" stroke="black" points="131.5,-333 222.5,-333 "/>
<path fill="none" stroke="black" d="M222.5,-333C228.5,-333 234.5,-339 234.5,-345"/>
<polyline fill="none" stroke="black" points="234.5,-345 234.5,-379 "/>
<path fill="none" stroke="black" d="M234.5,-379C234.5,-385 228.5,-391 222.5,-391"/>
<polyline fill="none" stroke="black" points="222.5,-391 131.5,-391 "/>
<path fill="none" stroke="black" d="M131.5,-391C125.5,-391 119.5,-385 119.5,-379"/>
<polyline fill="none" stroke="black" points="119.5,-379 119.5,-345 "/>
<path fill="none" stroke="black" d="M119.5,-345C119.5,-339 125.5,-333 131.5,-333"/>
<text text-anchor="middle" x="177" y="-357.4" font-family="Times New Roman,serif" font-size="14.00">Initial</text>
</g>
<!-- Initial_extra&#45;&gt;Initial -->
<g id="edge2" class="edge"><title>Initial_extra&#45;&gt;Initial</title>
<path fill="none" stroke="black" d="M177,-429.535C177,-422.74 177,-412.148 177,-401.351"/>
<polygon fill="black" stroke="black" points="180.5,-401.054 177,-391.054 173.5,-401.054 180.5,-401.054"/>
</g>
<!-- Initial_s_S_abl_InitialToFinalSend -->
<g id="node4" class="node"><title>Initial_s_S_abl_InitialToFinalSend</title>
<polyline fill="none" stroke="black" points="11.5,-205 196.5,-205 "/>
<path fill="none" stroke="black" d="M196.5,-205C202.5,-205 208.5,-211 208.5,-217"/>
<polyline fill="none" stroke="black" points="208.5,-217 208.5,-251 "/>
<path fill="none" stroke="black" d="M208.5,-251C208.5,-257 202.5,-263 196.5,-263"/>
<polyline fill="none" stroke="black" points="196.5,-263 11.5,-263 "/>
<path fill="none" stroke="black" d="M11.5,-263C5.5,-263 -0.5,-257 -0.5,-251"/>
<polyline fill="none" stroke="black" points="-0.5,-251 -0.5,-217 "/>
<path fill="none" stroke="black" d="M-0.5,-217C-0.5,-211 5.5,-205 11.5,-205"/>
<text text-anchor="middle" x="104" y="-229.4" font-family="Times New Roman,serif" font-size="14.00">Initial_s_S_abl_InitialToFinalSend</text>
</g>
<!-- Initial&#45;&gt;Initial_s_S_abl_InitialToFinalSend -->
<g id="edge6" class="edge"><title>Initial&#45;&gt;Initial_s_S_abl_InitialToFinalSend</title>
<path fill="none" stroke="black" d="M146.12,-332.845C140.94,-326.952 135.967,-320.545 132,-314 124.328,-301.342 118.362,-286.281 113.946,-272.659"/>
<polygon fill="black" stroke="black" points="117.278,-271.585 111.002,-263.049 110.585,-273.636 117.278,-271.585"/>
<text text-anchor="middle" x="177" y="-301.4" font-family="Times New Roman,serif" font-size="14.00">C_name := &quot;S&quot;;</text>
<text text-anchor="middle" x="177" y="-285.4" font-family="Times New Roman,serif" font-size="14.00"> C_abl := 1</text>
</g>
<!-- Final -->
<g id="node6" class="node"><title>Final</title>
<polyline fill="none" stroke="black" points="115.5,-61 206.5,-61 "/>
<path fill="none" stroke="black" d="M206.5,-61C212.5,-61 218.5,-67 218.5,-73"/>
<polyline fill="none" stroke="black" points="218.5,-73 218.5,-107 "/>
<path fill="none" stroke="black" d="M218.5,-107C218.5,-113 212.5,-119 206.5,-119"/>
<polyline fill="none" stroke="black" points="206.5,-119 115.5,-119 "/>
<path fill="none" stroke="black" d="M115.5,-119C109.5,-119 103.5,-113 103.5,-107"/>
<polyline fill="none" stroke="black" points="103.5,-107 103.5,-73 "/>
<path fill="none" stroke="black" d="M103.5,-73C103.5,-67 109.5,-61 115.5,-61"/>
<text text-anchor="middle" x="161" y="-85.4" font-family="Times New Roman,serif" font-size="14.00">Final</text>
</g>
<!-- Initial&#45;&gt;Final -->
<g id="edge8" class="edge"><title>Initial&#45;&gt;Final</title>
<path fill="none" stroke="black" d="M210.432,-332.972C215.155,-327.197 219.312,-320.798 222,-314 235.802,-279.098 274.403,-254.962 218,-138 216.051,-133.958 213.583,-130.13 210.774,-126.532"/>
<polygon fill="black" stroke="black" points="213.389,-124.207 204.145,-119.03 208.144,-128.842 213.389,-124.207"/>
</g>
<!-- Initial_s_S_abl_InitialToFinalSend&#45;&gt;Final -->
<g id="edge10" class="edge"><title>Initial_s_S_abl_InitialToFinalSend&#45;&gt;Final</title>
<path fill="none" stroke="black" d="M79.1609,-204.804C75.393,-198.915 72.0752,-192.52 70,-186 63.5297,-165.672 58.9823,-156.268 70,-138 75.9932,-128.063 84.8055,-120.078 94.6199,-113.695"/>
<polygon fill="black" stroke="black" points="96.6177,-116.58 103.457,-108.488 93.0644,-110.549 96.6177,-116.58"/>
<text text-anchor="middle" x="104.5" y="-173.4" font-family="Times New Roman,serif" font-size="14.00">C_abl == 2;</text>
<text text-anchor="middle" x="104.5" y="-157.4" font-family="Times New Roman,serif" font-size="14.00"> C_abl := 3;</text>
<text text-anchor="middle" x="104.5" y="-141.4" font-family="Times New Roman,serif" font-size="14.00"> C_abl == 0</text>
</g>
<!-- Initial_s_S_abl_InitialToFinalSend&#45;&gt;Final -->
<g id="edge12" class="edge"><title>Initial_s_S_abl_InitialToFinalSend&#45;&gt;Final</title>
<path fill="none" stroke="black" d="M128.018,-204.947C132.146,-198.947 136.049,-192.475 139,-186 147.121,-168.182 152.379,-147.093 155.71,-129.227"/>
<polygon fill="black" stroke="black" points="159.201,-129.578 157.456,-119.128 152.304,-128.386 159.201,-129.578"/>
<text text-anchor="middle" x="184" y="-157.4" font-family="Times New Roman,serif" font-size="14.00">C_abl := 0</text>
</g>
<!-- Final_extra -->
<g id="node5" class="node"><title>Final_extra</title>
<ellipse fill="black" stroke="black" cx="161" cy="-11" rx="7" ry="7"/>
<ellipse fill="none" stroke="black" cx="161" cy="-11" rx="11" ry="11"/>
</g>
<!-- Final&#45;&gt;Final_extra -->
<g id="edge4" class="edge"><title>Final&#45;&gt;Final_extra</title>
<path fill="none" stroke="black" d="M161,-60.5833C161,-51.2064 161,-41.0169 161,-32.3277"/>
<polygon fill="black" stroke="black" points="164.5,-32.2977 161,-22.2978 157.5,-32.2978 164.5,-32.2977"/>
</g>
</g>
</svg>
