<?xml version="1.0" encoding="UTF-8" standalone="no"?>
<!DOCTYPE svg PUBLIC "-//W3C//DTD SVG 1.1//EN"
 "http://www.w3.org/Graphics/SVG/1.1/DTD/svg11.dtd">
<!-- Generated by graphviz version 2.26.3 (20100126.1600)
 -->
<!-- Title: b_B Pages: 1 -->
<svg width="274pt" height="436pt"
 viewBox="0.00 0.00 273.77 436.00" xmlns="http://www.w3.org/2000/svg" xmlns:xlink="http://www.w3.org/1999/xlink">
<g id="graph1" class="graph" transform="scale(1 1) rotate(0) translate(4 432)">
<title>b_B</title>
<polygon fill="white" stroke="white" points="-4,5 -4,-432 270.765,-432 270.765,5 -4,5"/>
<!-- Initial_extra -->
<g id="node1" class="node"><title>Initial_extra</title>
<ellipse fill="black" stroke="black" cx="110.765" cy="-421" rx="7.2" ry="7.2"/>
</g>
<!-- Initial -->
<g id="node2" class="node"><title>Initial</title>
<polyline fill="none" stroke="black" points="65.2651,-317 156.265,-317 "/>
<path fill="none" stroke="black" d="M156.265,-317C162.265,-317 168.265,-323 168.265,-329"/>
<polyline fill="none" stroke="black" points="168.265,-329 168.265,-363 "/>
<path fill="none" stroke="black" d="M168.265,-363C168.265,-369 162.265,-375 156.265,-375"/>
<polyline fill="none" stroke="black" points="156.265,-375 65.2651,-375 "/>
<path fill="none" stroke="black" d="M65.2651,-375C59.2651,-375 53.2651,-369 53.2651,-363"/>
<polyline fill="none" stroke="black" points="53.2651,-363 53.2651,-329 "/>
<path fill="none" stroke="black" d="M53.2651,-329C53.2651,-323 59.2651,-317 65.2651,-317"/>
<text text-anchor="middle" x="110.765" y="-341.4" font-family="Times New Roman,serif" font-size="14.00">Initial</text>
</g>
<!-- Initial_extra&#45;&gt;Initial -->
<g id="edge2" class="edge"><title>Initial_extra&#45;&gt;Initial</title>
<path fill="none" stroke="black" d="M110.765,-413.535C110.765,-406.74 110.765,-396.148 110.765,-385.351"/>
<polygon fill="black" stroke="black" points="114.265,-385.054 110.765,-375.054 107.265,-385.054 114.265,-385.054"/>
</g>
<!-- Initial_r_S_rbl_InitialToFinal -->
<g id="node4" class="node"><title>Initial_r_S_rbl_InitialToFinal</title>
<polyline fill="none" stroke="black" points="33.7651,-189 187.765,-189 "/>
<path fill="none" stroke="black" d="M187.765,-189C193.765,-189 199.765,-195 199.765,-201"/>
<polyline fill="none" stroke="black" points="199.765,-201 199.765,-235 "/>
<path fill="none" stroke="black" d="M199.765,-235C199.765,-241 193.765,-247 187.765,-247"/>
<polyline fill="none" stroke="black" points="187.765,-247 33.7651,-247 "/>
<path fill="none" stroke="black" d="M33.7651,-247C27.7651,-247 21.7651,-241 21.7651,-235"/>
<polyline fill="none" stroke="black" points="21.7651,-235 21.7651,-201 "/>
<path fill="none" stroke="black" d="M21.7651,-201C21.7651,-195 27.7651,-189 33.7651,-189"/>
<text text-anchor="middle" x="110.765" y="-213.4" font-family="Times New Roman,serif" font-size="14.00">Initial_r_S_rbl_InitialToFinal</text>
</g>
<!-- Initial&#45;&gt;Initial_r_S_rbl_InitialToFinal -->
<g id="edge6" class="edge"><title>Initial&#45;&gt;Initial_r_S_rbl_InitialToFinal</title>
<path fill="none" stroke="black" d="M53.1058,-332.929C34.8061,-325.767 16.5442,-314.78 5.76513,-298 -1.92171,-286.034 -1.92171,-277.966 5.76513,-266 8.60377,-261.581 11.9614,-257.564 15.7019,-253.913"/>
<polygon fill="black" stroke="black" points="18.045,-256.514 23.3316,-247.332 13.4731,-251.213 18.045,-256.514"/>
<text text-anchor="middle" x="100.765" y="-285.4" font-family="Times New Roman,serif" font-size="14.00">C_abl == 1 &amp;&amp; C_name == &quot;S&quot;;</text>
<text text-anchor="middle" x="100.765" y="-269.4" font-family="Times New Roman,serif" font-size="14.00"> C_abl := 2</text>
</g>
<!-- Initial_r_S_rbl_InitialToFinal&#45;&gt;Initial -->
<g id="edge10" class="edge"><title>Initial_r_S_rbl_InitialToFinal&#45;&gt;Initial</title>
<path fill="none" stroke="black" d="M179.006,-247.006C185.648,-252.391 191.493,-258.682 195.765,-266 202.935,-278.283 202.935,-285.717 195.765,-298 191.06,-306.061 184.444,-312.876 176.959,-318.607"/>
<polygon fill="black" stroke="black" points="174.79,-315.85 168.544,-324.408 178.763,-321.614 174.79,-315.85"/>
<text text-anchor="middle" x="233.265" y="-277.4" font-family="Times New Roman,serif" font-size="14.00">C_abl == 0</text>
</g>
<!-- Final -->
<g id="node6" class="node"><title>Final</title>
<polyline fill="none" stroke="black" points="65.2651,-61 156.265,-61 "/>
<path fill="none" stroke="black" d="M156.265,-61C162.265,-61 168.265,-67 168.265,-73"/>
<polyline fill="none" stroke="black" points="168.265,-73 168.265,-107 "/>
<path fill="none" stroke="black" d="M168.265,-107C168.265,-113 162.265,-119 156.265,-119"/>
<polyline fill="none" stroke="black" points="156.265,-119 65.2651,-119 "/>
<path fill="none" stroke="black" d="M65.2651,-119C59.2651,-119 53.2651,-113 53.2651,-107"/>
<polyline fill="none" stroke="black" points="53.2651,-107 53.2651,-73 "/>
<path fill="none" stroke="black" d="M53.2651,-73C53.2651,-67 59.2651,-61 65.2651,-61"/>
<text text-anchor="middle" x="110.765" y="-85.4" font-family="Times New Roman,serif" font-size="14.00">Final</text>
</g>
<!-- Initial_r_S_rbl_InitialToFinal&#45;&gt;Final -->
<g id="edge8" class="edge"><title>Initial_r_S_rbl_InitialToFinal&#45;&gt;Final</title>
<path fill="none" stroke="black" d="M110.765,-188.955C110.765,-171.404 110.765,-148.795 110.765,-129.619"/>
<polygon fill="black" stroke="black" points="114.265,-129.373 110.765,-119.373 107.265,-129.373 114.265,-129.373"/>
<text text-anchor="middle" x="145.265" y="-157.4" font-family="Times New Roman,serif" font-size="14.00">C_abl == 3;</text>
<text text-anchor="middle" x="145.265" y="-141.4" font-family="Times New Roman,serif" font-size="14.00"> C_abl := 0</text>
</g>
<!-- Final_extra -->
<g id="node5" class="node"><title>Final_extra</title>
<ellipse fill="black" stroke="black" cx="110.765" cy="-11" rx="7" ry="7"/>
<ellipse fill="none" stroke="black" cx="110.765" cy="-11" rx="11" ry="11"/>
</g>
<!-- Final&#45;&gt;Final_extra -->
<g id="edge4" class="edge"><title>Final&#45;&gt;Final_extra</title>
<path fill="none" stroke="black" d="M110.765,-60.5833C110.765,-51.2064 110.765,-41.0169 110.765,-32.3277"/>
<polygon fill="black" stroke="black" points="114.265,-32.2977 110.765,-22.2978 107.265,-32.2978 114.265,-32.2977"/>
</g>
</g>
</svg>
