<?xml version="1.0" encoding="UTF-8" standalone="no"?>
<!DOCTYPE svg PUBLIC "-//W3C//DTD SVG 1.1//EN"
 "http://www.w3.org/Graphics/SVG/1.1/DTD/svg11.dtd">
<!-- Generated by graphviz version 2.26.3 (20100126.1600)
 -->
<!-- Title: Receiver Pages: 1 -->
<svg width="643pt" height="145pt"
 viewBox="0.00 0.00 643.00 144.73" xmlns="http://www.w3.org/2000/svg" xmlns:xlink="http://www.w3.org/1999/xlink">
<g id="graph1" class="graph" transform="scale(1 1) rotate(0) translate(4 140.728)">
<title>Receiver</title>
<polygon fill="white" stroke="white" points="-4,5 -4,-140.728 640,-140.728 640,5 -4,5"/>
<!-- Zero_extra -->
<g id="node1" class="node"><title>Zero_extra</title>
<ellipse fill="black" stroke="black" cx="57" cy="-129.728" rx="7.2" ry="7.2"/>
</g>
<!-- Zero -->
<g id="node2" class="node"><title>Zero</title>
<polyline fill="none" stroke="black" points="11.5,-23.7279 102.5,-23.7279 "/>
<path fill="none" stroke="black" d="M102.5,-23.7279C108.5,-23.7279 114.5,-29.7279 114.5,-35.7279"/>
<polyline fill="none" stroke="black" points="114.5,-35.7279 114.5,-69.7279 "/>
<path fill="none" stroke="black" d="M114.5,-69.7279C114.5,-75.7279 108.5,-81.7279 102.5,-81.7279"/>
<polyline fill="none" stroke="black" points="102.5,-81.7279 11.5,-81.7279 "/>
<path fill="none" stroke="black" d="M11.5,-81.7279C5.5,-81.7279 -0.5,-75.7279 -0.5,-69.7279"/>
<polyline fill="none" stroke="black" points="-0.5,-69.7279 -0.5,-35.7279 "/>
<path fill="none" stroke="black" d="M-0.5,-35.7279C-0.5,-29.7279 5.5,-23.7279 11.5,-23.7279"/>
<text text-anchor="middle" x="57" y="-48.1279" font-family="Times New Roman,serif" font-size="14.00">Zero</text>
</g>
<!-- Zero_extra&#45;&gt;Zero -->
<g id="edge2" class="edge"><title>Zero_extra&#45;&gt;Zero</title>
<path fill="none" stroke="black" d="M57,-122.345C57,-115.183 57,-103.73 57,-92.1646"/>
<polygon fill="black" stroke="black" points="60.5001,-92.0768 57,-82.0769 53.5001,-92.0769 60.5001,-92.0768"/>
</g>
<!-- Zero&#45;&gt;Zero -->
<g id="edge4" class="edge"><title>Zero&#45;&gt;Zero</title>
<path fill="none" stroke="black" d="M114.544,-57.1405C124.822,-56.567 132,-55.0961 132,-52.7279 132,-51.2478 129.196,-50.1182 124.584,-49.3392"/>
<polygon fill="black" stroke="black" points="124.848,-45.848 114.544,-48.3154 124.138,-52.8119 124.848,-45.848"/>
<text text-anchor="middle" x="249.5" y="-72.1279" font-family="Times New Roman,serif" font-size="14.00">receive Message(d, [[r]]) from ARSender;</text>
<text text-anchor="middle" x="249.5" y="-56.1279" font-family="Times New Roman,serif" font-size="14.00"> send Signal(d) to AROriginal;</text>
<text text-anchor="middle" x="249.5" y="-40.1279" font-family="Times New Roman,serif" font-size="14.00"> send Acknowledge() to ARAS;</text>
<text text-anchor="middle" x="249.5" y="-24.1279" font-family="Times New Roman,serif" font-size="14.00"> r := 1 &#45; r</text>
</g>
<!-- Zero&#45;&gt;Zero -->
<g id="edge6" class="edge"><title>Zero&#45;&gt;Zero</title>
<path fill="none" stroke="black" d="M90.2446,-81.7695C172.492,-121.064 367,-111.384 367,-52.7279 367,3.80866 186.295,14.8451 99.5854,-19.6187"/>
<polygon fill="black" stroke="black" points="98.0155,-16.4847 90.2446,-23.6863 100.81,-22.9026 98.0155,-16.4847"/>
<text text-anchor="middle" x="492" y="-48.1279" font-family="Times New Roman,serif" font-size="14.00">receive Message(d, [[1 &#45; r]]) from ARSender</text>
</g>
</g>
</svg>
