<?xml version="1.0" encoding="UTF-8" standalone="no"?>
<!DOCTYPE svg PUBLIC "-//W3C//DTD SVG 1.1//EN"
 "http://www.w3.org/Graphics/SVG/1.1/DTD/svg11.dtd">
<!-- Generated by graphviz version 2.26.3 (20100126.1600)
 -->
<!-- Title: AS Pages: 1 -->
<svg width="592pt" height="120pt"
 viewBox="0.00 0.00 592.00 120.00" xmlns="http://www.w3.org/2000/svg" xmlns:xlink="http://www.w3.org/1999/xlink">
<g id="graph1" class="graph" transform="scale(1 1) rotate(0) translate(4 116)">
<title>AS</title>
<polygon fill="white" stroke="white" points="-4,5 -4,-116 589,-116 589,5 -4,5"/>
<!-- Zero_extra -->
<g id="node1" class="node"><title>Zero_extra</title>
<ellipse fill="black" stroke="black" cx="57" cy="-105" rx="7.2" ry="7.2"/>
</g>
<!-- Zero -->
<g id="node2" class="node"><title>Zero</title>
<polyline fill="none" stroke="black" points="11.5,-1 102.5,-1 "/>
<path fill="none" stroke="black" d="M102.5,-1C108.5,-1 114.5,-7 114.5,-13"/>
<polyline fill="none" stroke="black" points="114.5,-13 114.5,-47 "/>
<path fill="none" stroke="black" d="M114.5,-47C114.5,-53 108.5,-59 102.5,-59"/>
<polyline fill="none" stroke="black" points="102.5,-59 11.5,-59 "/>
<path fill="none" stroke="black" d="M11.5,-59C5.5,-59 -0.5,-53 -0.5,-47"/>
<polyline fill="none" stroke="black" points="-0.5,-47 -0.5,-13 "/>
<path fill="none" stroke="black" d="M-0.5,-13C-0.5,-7 5.5,-1 11.5,-1"/>
<text text-anchor="middle" x="57" y="-25.4" font-family="Times New Roman,serif" font-size="14.00">Zero</text>
</g>
<!-- Zero_extra&#45;&gt;Zero -->
<g id="edge2" class="edge"><title>Zero_extra&#45;&gt;Zero</title>
<path fill="none" stroke="black" d="M57,-97.5345C57,-90.7396 57,-80.1479 57,-69.3512"/>
<polygon fill="black" stroke="black" points="60.5001,-69.0539 57,-59.054 53.5001,-69.054 60.5001,-69.0539"/>
</g>
<!-- Zero&#45;&gt;Zero -->
<g id="edge4" class="edge"><title>Zero&#45;&gt;Zero</title>
<path fill="none" stroke="black" d="M114.544,-34.2361C124.822,-33.6855 132,-32.2734 132,-30 132,-28.5791 129.196,-27.4947 124.584,-26.7468"/>
<polygon fill="black" stroke="black" points="124.838,-23.255 114.544,-25.7639 124.156,-30.2217 124.838,-23.255"/>
<text text-anchor="middle" x="254" y="-33.4" font-family="Times New Roman,serif" font-size="14.00">receive Acknowledge() from AASReceiver;</text>
<text text-anchor="middle" x="254" y="-17.4" font-family="Times New Roman,serif" font-size="14.00"> b := 1 &#45; b</text>
</g>
<!-- Zero&#45;&gt;Zero -->
<g id="edge6" class="edge"><title>Zero&#45;&gt;Zero</title>
<path fill="none" stroke="black" d="M114.846,-50.5744C208.04,-65.8777 376,-59.0195 376,-30 376,-2.00069 219.642,5.36806 124.942,-7.89376"/>
<polygon fill="black" stroke="black" points="124.208,-4.46498 114.846,-9.42561 125.258,-11.3858 124.208,-4.46498"/>
<text text-anchor="middle" x="471" y="-25.4" font-family="Times New Roman,serif" font-size="14.00">send Acknowledge(b) to AASAR</text>
</g>
</g>
</svg>
