<?xml version="1.0" encoding="UTF-8" standalone="no"?>
<!DOCTYPE svg PUBLIC "-//W3C//DTD SVG 1.1//EN"
 "http://www.w3.org/Graphics/SVG/1.1/DTD/svg11.dtd">
<!-- Generated by graphviz version 2.26.3 (20100126.1600)
 -->
<!-- Title: Lossless2Lossy_ll Pages: 1 -->
<svg width="1704pt" height="273pt"
 viewBox="0.00 0.00 1704.00 273.00" xmlns="http://www.w3.org/2000/svg" xmlns:xlink="http://www.w3.org/1999/xlink">
<g id="graph1" class="graph" transform="scale(1 1) rotate(0) translate(4 269)">
<title>Lossless2Lossy_ll</title>
<polygon fill="white" stroke="white" points="-4,5 -4,-269 1701,-269 1701,5 -4,5"/>
<g id="graph2" class="cluster"><title>cluster_a</title>
<polygon fill="none" stroke="black" points="8,-116 8,-192 78,-192 78,-116 8,-116"/>
<text text-anchor="middle" x="43" y="-175.4" font-family="Times New Roman,serif" font-size="14.00">a: A</text>
</g>
<g id="graph3" class="cluster"><title>cluster_b</title>
<polygon fill="none" stroke="black" points="1235,-181 1235,-257 1305,-257 1305,-181 1235,-181"/>
<text text-anchor="middle" x="1270" y="-240.4" font-family="Times New Roman,serif" font-size="14.00">b: B</text>
</g>
<g id="graph4" class="cluster"><title>cluster_a_OutABP_Sender</title>
<polygon fill="none" stroke="black" points="292,-8 292,-192 497,-192 497,-8 292,-8"/>
<text text-anchor="middle" x="394.5" y="-175.4" font-family="Times New Roman,serif" font-size="14.00">a_OutABP_Sender: ABP_Sender</text>
</g>
<g id="graph5" class="cluster"><title>cluster_a_OutABP_AR</title>
<polygon fill="none" stroke="black" points="1522,-31 1522,-161 1688,-161 1688,-31 1522,-31"/>
<text text-anchor="middle" x="1605" y="-144.4" font-family="Times New Roman,serif" font-size="14.00">a_OutABP_AR: ABP_AR</text>
</g>
<g id="graph6" class="cluster"><title>cluster_b_InABP_Receiver</title>
<polygon fill="none" stroke="black" points="761,-43 761,-227 977,-227 977,-43 761,-43"/>
<text text-anchor="middle" x="869" y="-210.4" font-family="Times New Roman,serif" font-size="14.00">b_InABP_Receiver: ABP_Receiver</text>
</g>
<g id="graph7" class="cluster"><title>cluster_b_InABP_AS</title>
<polygon fill="none" stroke="black" points="1193,-43 1193,-173 1348,-173 1348,-43 1193,-43"/>
<text text-anchor="middle" x="1270.5" y="-156.4" font-family="Times New Roman,serif" font-size="14.00">b_InABP_AS: ABP_AS</text>
</g>
<!-- a_Out -->
<g id="node2" class="node"><title>a_Out</title>
<polygon fill="none" stroke="black" points="70,-160 16,-160 16,-124 70,-124 70,-160"/>
<text text-anchor="middle" x="43" y="-137.4" font-family="Times New Roman,serif" font-size="14.00">Out</text>
</g>
<!-- a_OutABP_Sender_ASOriginal -->
<g id="node6" class="node"><title>a_OutABP_Sender_ASOriginal</title>
<polygon fill="none" stroke="black" points="433,-160 355,-160 355,-124 433,-124 433,-160"/>
<text text-anchor="middle" x="394" y="-137.4" font-family="Times New Roman,serif" font-size="14.00">ASOriginal</text>
</g>
<!-- a_Out&#45;&gt;a_OutABP_Sender_ASOriginal -->
<g id="edge8" class="edge"><title>a_Out&#45;&gt;a_OutABP_Sender_ASOriginal</title>
<path fill="none" stroke="black" d="M70.2503,-142C129.247,-142 269.517,-142 344.586,-142"/>
<polygon fill="black" stroke="black" points="344.731,-145.5 354.731,-142 344.731,-138.5 344.731,-145.5"/>
<text text-anchor="middle" x="185" y="-145.4" font-family="Times New Roman,serif" font-size="14.00">a_Out_Original_to_Sender(String)</text>
</g>
<!-- b_In -->
<g id="node4" class="node"><title>b_In</title>
<polygon fill="none" stroke="black" points="1297,-225 1243,-225 1243,-189 1297,-189 1297,-225"/>
<text text-anchor="middle" x="1270" y="-202.4" font-family="Times New Roman,serif" font-size="14.00">In</text>
</g>
<!-- a_OutABP_Sender_ASReceiver -->
<g id="node7" class="node"><title>a_OutABP_Sender_ASReceiver</title>
<polygon fill="none" stroke="black" points="435,-106 353,-106 353,-70 435,-70 435,-106"/>
<text text-anchor="middle" x="394" y="-83.4" font-family="Times New Roman,serif" font-size="14.00">ASReceiver</text>
</g>
<!-- b_InABP_Receiver_ARSender -->
<g id="node14" class="node"><title>b_InABP_Receiver_ARSender</title>
<polygon fill="none" stroke="black" points="906,-141 832,-141 832,-105 906,-105 906,-141"/>
<text text-anchor="middle" x="869" y="-118.4" font-family="Times New Roman,serif" font-size="14.00">ARSender</text>
</g>
<!-- a_OutABP_Sender_ASReceiver&#45;&gt;b_InABP_Receiver_ARSender -->
<g id="edge16" class="edge"><title>a_OutABP_Sender_ASReceiver&#45;&gt;b_InABP_Receiver_ARSender</title>
<path fill="none" stroke="black" stroke-dasharray="1,5" d="M435.737,-91.0753C523.782,-97.5629 728.063,-112.615 821.19,-119.477"/>
<polygon fill="black" stroke="black" points="820.952,-122.969 831.182,-120.213 821.467,-115.988 820.952,-122.969"/>
<text text-anchor="middle" x="629" y="-117.4" font-family="Times New Roman,serif" font-size="14.00">a_Out_Sender_to_Receiver(String, Integer)</text>
</g>
<!-- a_OutABP_Sender_ASAR -->
<g id="node8" class="node"><title>a_OutABP_Sender_ASAR</title>
<polygon fill="none" stroke="black" points="421,-52 367,-52 367,-16 421,-16 421,-52"/>
<text text-anchor="middle" x="394" y="-29.4" font-family="Times New Roman,serif" font-size="14.00">ASAR</text>
</g>
<!-- a_OutABP_AR_AARAS -->
<g id="node10" class="node"><title>a_OutABP_AR_AARAS</title>
<polygon fill="none" stroke="black" points="1637,-129 1573,-129 1573,-93 1637,-93 1637,-129"/>
<text text-anchor="middle" x="1605" y="-106.4" font-family="Times New Roman,serif" font-size="14.00">AARAS</text>
</g>
<!-- a_OutABP_AR_AARSender -->
<g id="node11" class="node"><title>a_OutABP_AR_AARSender</title>
<polygon fill="none" stroke="black" points="1647,-75 1563,-75 1563,-39 1647,-39 1647,-75"/>
<text text-anchor="middle" x="1605" y="-52.4" font-family="Times New Roman,serif" font-size="14.00">AARSender</text>
</g>
<!-- a_OutABP_AR_AARSender&#45;&gt;a_OutABP_Sender_ASAR -->
<g id="edge10" class="edge"><title>a_OutABP_AR_AARSender&#45;&gt;a_OutABP_Sender_ASAR</title>
<path fill="none" stroke="black" d="M1562.3,-53.1604C1511.34,-48.775 1423.54,-41.8402 1348,-39 991.419,-25.5923 559.348,-31.2106 431.396,-33.3272"/>
<polygon fill="black" stroke="black" points="431.274,-29.8286 421.334,-33.4969 431.392,-36.8277 431.274,-29.8286"/>
<text text-anchor="middle" x="1085" y="-38.4" font-family="Times New Roman,serif" font-size="14.00">a_Out_AR_to_Sender()</text>
</g>
<!-- b_InABP_Receiver_AROriginal -->
<g id="node13" class="node"><title>b_InABP_Receiver_AROriginal</title>
<polygon fill="none" stroke="black" points="909,-195 829,-195 829,-159 909,-159 909,-195"/>
<text text-anchor="middle" x="869" y="-172.4" font-family="Times New Roman,serif" font-size="14.00">AROriginal</text>
</g>
<!-- b_InABP_Receiver_AROriginal&#45;&gt;b_In -->
<g id="edge12" class="edge"><title>b_InABP_Receiver_AROriginal&#45;&gt;b_In</title>
<path fill="none" stroke="black" d="M909.285,-180.014C987.247,-185.846 1157.69,-198.598 1232.98,-204.231"/>
<polygon fill="black" stroke="black" points="1232.72,-207.721 1242.96,-204.977 1233.25,-200.74 1232.72,-207.721"/>
<text text-anchor="middle" x="1085" y="-203.4" font-family="Times New Roman,serif" font-size="14.00">b_In_Receiver_to_Original(String)</text>
</g>
<!-- b_InABP_Receiver_ARAS -->
<g id="node15" class="node"><title>b_InABP_Receiver_ARAS</title>
<polygon fill="none" stroke="black" points="896,-87 842,-87 842,-51 896,-51 896,-87"/>
<text text-anchor="middle" x="869" y="-64.4" font-family="Times New Roman,serif" font-size="14.00">ARAS</text>
</g>
<!-- b_InABP_AS_AASReceiver -->
<g id="node18" class="node"><title>b_InABP_AS_AASReceiver</title>
<polygon fill="none" stroke="black" points="1316,-87 1224,-87 1224,-51 1316,-51 1316,-87"/>
<text text-anchor="middle" x="1270" y="-64.4" font-family="Times New Roman,serif" font-size="14.00">AASReceiver</text>
</g>
<!-- b_InABP_Receiver_ARAS&#45;&gt;b_InABP_AS_AASReceiver -->
<g id="edge14" class="edge"><title>b_InABP_Receiver_ARAS&#45;&gt;b_InABP_AS_AASReceiver</title>
<path fill="none" stroke="black" d="M896.247,-69C961.105,-69 1125.76,-69 1213.28,-69"/>
<polygon fill="black" stroke="black" points="1213.3,-72.5001 1223.3,-69 1213.3,-65.5001 1213.3,-72.5001"/>
<text text-anchor="middle" x="1085" y="-72.4" font-family="Times New Roman,serif" font-size="14.00">b_In_Receiver_to_AS()</text>
</g>
<!-- b_InABP_AS_AASAR -->
<g id="node17" class="node"><title>b_InABP_AS_AASAR</title>
<polygon fill="none" stroke="black" points="1302,-141 1238,-141 1238,-105 1302,-105 1302,-141"/>
<text text-anchor="middle" x="1270" y="-118.4" font-family="Times New Roman,serif" font-size="14.00">AASAR</text>
</g>
<!-- b_InABP_AS_AASAR&#45;&gt;a_OutABP_AR_AARAS -->
<g id="edge18" class="edge"><title>b_InABP_AS_AASAR&#45;&gt;a_OutABP_AR_AARAS</title>
<path fill="none" stroke="black" stroke-dasharray="1,5" d="M1302.12,-121.849C1362.9,-119.672 1494.72,-114.95 1562.64,-112.517"/>
<polygon fill="black" stroke="black" points="1563.11,-116.003 1572.98,-112.147 1562.86,-109.007 1563.11,-116.003"/>
<text text-anchor="middle" x="1435" y="-122.4" font-family="Times New Roman,serif" font-size="14.00">a_Out_AS_to_AR(Integer)</text>
</g>
</g>
</svg>
