<?xml version="1.0" encoding="UTF-8" standalone="no"?>
<!DOCTYPE svg PUBLIC "-//W3C//DTD SVG 1.1//EN"
 "http://www.w3.org/Graphics/SVG/1.1/DTD/svg11.dtd">
<!-- Generated by graphviz version 2.26.3 (20100126.1600)
 -->
<!-- Title: Bi2Uni_uni Pages: 1 -->
<svg width="134pt" height="192pt"
 viewBox="0.00 0.00 134.00 192.00" xmlns="http://www.w3.org/2000/svg" xmlns:xlink="http://www.w3.org/1999/xlink">
<g id="graph1" class="graph" transform="scale(1 1) rotate(0) translate(4 188)">
<title>Bi2Uni_uni</title>
<polygon fill="white" stroke="white" points="-4,5 -4,-188 131,-188 131,5 -4,5"/>
<!-- A_7 -->
<g id="node1" class="node"><title>A_7</title>
<polygon fill="none" stroke="black" points="0,-111 0,-183 54,-183 54,-111 0,-111"/>
<text text-anchor="middle" x="27" y="-166.4" font-family="Times New Roman,serif" font-size="14.00">A</text>
<polyline fill="none" stroke="black" points="0,-159 54,-159 "/>
<text text-anchor="middle" x="27" y="-142.4" font-family="Times New Roman,serif" font-size="14.00"> </text>
<polyline fill="none" stroke="black" points="0,-135 54,-135 "/>
<text text-anchor="middle" x="27" y="-118.4" font-family="Times New Roman,serif" font-size="14.00"> </text>
</g>
<!-- A_7_A -->
<g id="node2" class="node"><title>A_7_A</title>
<polygon fill="#f2f2f2" stroke="black" points="0,-1 0,-73 54,-73 54,-1 0,-1"/>
<text text-anchor="middle" x="27" y="-56.4" font-family="Times New Roman,serif" font-size="14.00">A</text>
<polyline fill="none" stroke="black" points="0,-49 54,-49 "/>
<text text-anchor="middle" x="27" y="-32.4" font-family="Times New Roman,serif" font-size="14.00"> </text>
<polyline fill="none" stroke="black" points="0,-25 54,-25 "/>
<text text-anchor="middle" x="27" y="-8.4" font-family="Times New Roman,serif" font-size="14.00"> </text>
</g>
<!-- A_7&#45;&gt;A_7_A -->
<g id="edge2" class="edge"><title>A_7&#45;&gt;A_7_A</title>
<path fill="none" stroke="black" d="M27,-98.9596C27,-90.28 27,-81.3653 27,-73.099"/>
<polygon fill="black" stroke="black" points="27.0001,-98.9819 31,-104.982 27,-110.982 23,-104.982 27.0001,-98.9819"/>
</g>
<!-- B_22 -->
<g id="node4" class="node"><title>B_22</title>
<polygon fill="none" stroke="black" points="72,-111 72,-183 126,-183 126,-111 72,-111"/>
<text text-anchor="middle" x="99" y="-166.4" font-family="Times New Roman,serif" font-size="14.00">B</text>
<polyline fill="none" stroke="black" points="72,-159 126,-159 "/>
<text text-anchor="middle" x="99" y="-142.4" font-family="Times New Roman,serif" font-size="14.00"> </text>
<polyline fill="none" stroke="black" points="72,-135 126,-135 "/>
<text text-anchor="middle" x="99" y="-118.4" font-family="Times New Roman,serif" font-size="14.00"> </text>
</g>
<!-- B_22_B -->
<g id="node5" class="node"><title>B_22_B</title>
<polygon fill="#f2f2f2" stroke="black" points="72,-1 72,-73 126,-73 126,-1 72,-1"/>
<text text-anchor="middle" x="99" y="-56.4" font-family="Times New Roman,serif" font-size="14.00">B</text>
<polyline fill="none" stroke="black" points="72,-49 126,-49 "/>
<text text-anchor="middle" x="99" y="-32.4" font-family="Times New Roman,serif" font-size="14.00"> </text>
<polyline fill="none" stroke="black" points="72,-25 126,-25 "/>
<text text-anchor="middle" x="99" y="-8.4" font-family="Times New Roman,serif" font-size="14.00"> </text>
</g>
<!-- B_22&#45;&gt;B_22_B -->
<g id="edge4" class="edge"><title>B_22&#45;&gt;B_22_B</title>
<path fill="none" stroke="black" d="M99,-98.9596C99,-90.28 99,-81.3653 99,-73.099"/>
<polygon fill="black" stroke="black" points="99.0001,-98.9819 103,-104.982 99,-110.982 95,-104.982 99.0001,-98.9819"/>
</g>
</g>
</svg>
