<?xml version="1.0" encoding="UTF-8" standalone="no"?>
<!-- Generated by graphviz version 2.26.3 (20100126.1600)
 -->

<!-- Title: B Pages: 1 -->

<svg
   xmlns:dc="http://purl.org/dc/elements/1.1/"
   xmlns:cc="http://creativecommons.org/ns#"
   xmlns:rdf="http://www.w3.org/1999/02/22-rdf-syntax-ns#"
   xmlns:svg="http://www.w3.org/2000/svg"
   xmlns="http://www.w3.org/2000/svg"
   xmlns:sodipodi="http://sodipodi.sourceforge.net/DTD/sodipodi-0.dtd"
   xmlns:inkscape="http://www.inkscape.org/namespaces/inkscape"
   width="321.38135"
   height="356.5"
   viewBox="0 0 256.74606 285.2"
   id="svg2"
   version="1.1"
   inkscape:version="0.48.1 "
   sodipodi:docname="B_B.svg"
   inkscape:export-filename="D:\My Documents\NQC project\eclipse-workspaces\mm-runtime\models\TransformationExamples\dot\Bi2Uni\B_B.png"
   inkscape:export-xdpi="150"
   inkscape:export-ydpi="150">
  <metadata
     id="metadata99">
    <rdf:RDF>
      <cc:Work
         rdf:about="">
        <dc:format>image/svg+xml</dc:format>
        <dc:type
           rdf:resource="http://purl.org/dc/dcmitype/StillImage" />
        <dc:title></dc:title>
      </cc:Work>
    </rdf:RDF>
  </metadata>
  <defs
     id="defs97" />
  <sodipodi:namedview
     pagecolor="#ffffff"
     bordercolor="#666666"
     borderopacity="1"
     objecttolerance="10"
     gridtolerance="10"
     guidetolerance="10"
     inkscape:pageopacity="0"
     inkscape:pageshadow="2"
     inkscape:window-width="1680"
     inkscape:window-height="998"
     id="namedview95"
     showgrid="false"
     fit-margin-top="0"
     fit-margin-left="0"
     fit-margin-right="0"
     fit-margin-bottom="0"
     inkscape:zoom="1.430137"
     inkscape:cx="157.19988"
     inkscape:cy="211.4168"
     inkscape:window-x="-8"
     inkscape:window-y="-8"
     inkscape:window-maximized="1"
     inkscape:current-layer="svg2" />
  <ellipse
     cx="58.688702"
     cy="-277"
     rx="7.1999998"
     ry="7.1999998"
     id="ellipse12"
     d="m 65.888701,-277 c 0,3.97645 -3.223549,7.2 -7.199999,7.2 -3.97645,0 -7.2,-3.22355 -7.2,-7.2 0,-3.97645 3.22355,-7.2 7.2,-7.2 3.97645,0 7.199999,3.22355 7.199999,7.2 z"
     sodipodi:cx="58.688702"
     sodipodi:cy="-277"
     sodipodi:rx="7.1999998"
     sodipodi:ry="7.1999998"
     style="fill:#000000;stroke:#000000"
     transform="translate(3.1262619,284.7)" />
  <polyline
     points="13.1887,-173 104.189,-173 "
     id="polyline17"
     style="fill:none;stroke:#000000"
     transform="translate(3.1262619,284.7)" />
  <path
     d="m 107.31526,111.7 c 6,0 12,-6 12,-12"
     id="path19"
     inkscape:connector-curvature="0"
     style="fill:none;stroke:#000000" />
  <polyline
     points="116.189,-185 116.189,-219 "
     id="polyline21"
     style="fill:none;stroke:#000000"
     transform="translate(3.1262619,284.7)" />
  <path
     d="m 119.31526,65.7 c 0,-6 -6,-12 -12,-12"
     id="path23"
     inkscape:connector-curvature="0"
     style="fill:none;stroke:#000000" />
  <polyline
     points="104.189,-231 13.1887,-231 "
     id="polyline25"
     style="fill:none;stroke:#000000"
     transform="translate(3.1262619,284.7)" />
  <path
     d="m 16.314962,53.7 c -6,0 -12.0000001,6 -12.0000001,12"
     id="path27"
     inkscape:connector-curvature="0"
     style="fill:none;stroke:#000000" />
  <polyline
     points="1.1887,-219 1.1887,-185 "
     id="polyline29"
     style="fill:none;stroke:#000000"
     transform="translate(3.1262619,284.7)" />
  <path
     d="m 4.3149619,99.7 c 0,6 6.0000001,12 12.0000001,12"
     id="path31"
     inkscape:connector-curvature="0"
     style="fill:none;stroke:#000000" />
  <text
     x="61.814964"
     y="87.300003"
     font-size="14.00"
     id="text33"
     style="font-size:14px;font-style:normal;font-variant:normal;font-weight:normal;font-stretch:normal;text-anchor:middle;font-family:Arial;-inkscape-font-specification:Arial">Initial</text>
  <path
     d="m 61.814962,15.165 c 0,6.795 0,17.387 0,28.184"
     id="path38"
     inkscape:connector-curvature="0"
     style="fill:none;stroke:#000000" />
  <polygon
     points="62.1888,-241.054 62.1888,-241.054 58.6887,-231.054 55.1888,-241.054 "
     id="polygon40"
     style="fill:#000000;stroke:#000000"
     transform="translate(3.1262619,284.7)" />
  <polyline
     points="13.1887,-61 104.189,-61 "
     id="polyline45"
     style="fill:none;stroke:#000000"
     transform="translate(3.1262619,284.7)" />
  <path
     d="m 107.31526,223.7 c 6,0 12,-6 12,-12"
     id="path47"
     inkscape:connector-curvature="0"
     style="fill:none;stroke:#000000" />
  <polyline
     points="116.189,-73 116.189,-107 "
     id="polyline49"
     style="fill:none;stroke:#000000"
     transform="translate(3.1262619,284.7)" />
  <path
     d="m 119.31526,177.7 c 0,-6 -6,-12 -12,-12"
     id="path51"
     inkscape:connector-curvature="0"
     style="fill:none;stroke:#000000" />
  <polyline
     points="104.189,-119 13.1887,-119 "
     id="polyline53"
     style="fill:none;stroke:#000000"
     transform="translate(3.1262619,284.7)" />
  <path
     d="m 16.314962,165.7 c -6,0 -12.0000001,6 -12.0000001,12"
     id="path55"
     inkscape:connector-curvature="0"
     style="fill:none;stroke:#000000" />
  <polyline
     points="1.1887,-107 1.1887,-73 "
     id="polyline57"
     style="fill:none;stroke:#000000"
     transform="translate(3.1262619,284.7)" />
  <path
     d="m 4.3149619,211.7 c 0,6 6.0000001,12 12.0000001,12"
     id="path59"
     inkscape:connector-curvature="0"
     style="fill:none;stroke:#000000" />
  <text
     x="61.814964"
     y="199.3"
     font-size="14.00"
     id="text61"
     style="font-size:14px;font-style:normal;font-variant:normal;font-weight:normal;font-stretch:normal;text-anchor:middle;font-family:Arial;-inkscape-font-specification:Arial">Final</text>
  <path
     d="m 16.047062,111.751 c -5.44,5.624 -10.2217301,11.969 -13.4321001,18.949 -4.34934,9.456 -2.05610897,18.558 3.55095,26.783"
     id="path66"
     inkscape:connector-curvature="0"
     style="fill:none;stroke:#000000" />
  <polygon
     points="12.828,-119.303 3.73998,-124.749 9.11969,-129.227 9.11969,-129.227 "
     id="polygon68"
     style="fill:#000000;stroke:#000000"
     transform="translate(-0.07373807,284.7)" />
  <text
     x="56.114956"
     y="143.3"
     font-size="14.00"
     id="text70"
     style="font-size:14px;font-style:normal;font-variant:normal;font-weight:normal;font-stretch:normal;text-anchor:middle;font-family:Arial;-inkscape-font-specification:Arial"><tspan
   style="font-weight:bold"
   id="tspan3161">send</tspan>
 S() <tspan
   style="font-weight:bold"
   id="tspan3159">to</tspan>
 Port</text>
  <path
     d="m 104.97686,111.814 c 3.8795,5.897 7.2972,12.316 9.4381,18.886 2.8223,8.661 1.2955,17.508 -2.3593,25.752"
     id="path75"
     inkscape:connector-curvature="0"
     style="fill:none;stroke:#000000" />
  <polygon
     points="88.1311,-129.694 94.2771,-126.343 94.2771,-126.343 86.4173,-119.239 "
     id="polygon77"
     style="fill:#000000;stroke:#000000"
     transform="translate(20.726262,284.7)" />
  <text
     x="189.31532"
     y="143.3"
     font-size="14.00"
     id="text79"
     style="font-size:14px;font-style:normal;font-variant:normal;font-weight:normal;font-stretch:normal;text-anchor:middle;font-family:Arial;-inkscape-font-specification:Arial"><tspan
   style="font-weight:bold"
   id="tspan3155">receive</tspan>
 S() <tspan
   style="font-weight:bold"
   id="tspan3157">from</tspan>
 Port</text>
  <ellipse
     cx="58.688702"
     cy="-11"
     rx="7"
     ry="7"
     id="ellipse84"
     d="m 65.688702,-11 c 0,3.8659932 -3.134007,7 -7,7 -3.865994,0 -7,-3.1340068 -7,-7 0,-3.865993 3.134006,-7 7,-7 3.865993,0 7,3.134007 7,7 z"
     sodipodi:cx="58.688702"
     sodipodi:cy="-11"
     sodipodi:rx="7"
     sodipodi:ry="7"
     style="fill:#000000;stroke:#000000"
     transform="translate(3.1262619,284.7)" />
  <ellipse
     cx="58.688702"
     cy="-11"
     rx="11"
     ry="11"
     id="ellipse86"
     d="m 69.688702,-11 c 0,6.0751322 -4.924868,11 -11,11 -6.075133,0 -11,-4.9248678 -11,-11 0,-6.075132 4.924867,-11 11,-11 6.075132,0 11,4.924868 11,11 z"
     sodipodi:cx="58.688702"
     sodipodi:cy="-11"
     sodipodi:rx="11"
     sodipodi:ry="11"
     style="fill:none;stroke:#000000"
     transform="translate(3.1262619,284.7)" />
  <path
     d="m 61.814962,224.1167 c 0,9.3769 0,19.5664 0,28.2556"
     id="path91"
     inkscape:connector-curvature="0"
     style="fill:none;stroke:#000000" />
  <polygon
     points="62.1888,-32.2977 62.1888,-32.2977 58.6887,-22.2978 55.1888,-32.2978 "
     id="polygon93"
     style="fill:#000000;stroke:#000000"
     transform="translate(3.1262619,284.7)" />
</svg>
