<?xml version="1.0" encoding="UTF-8" standalone="no"?>
<!-- Generated by graphviz version 2.26.3 (20100126.1600)
 -->

<!-- Title: B Pages: 1 -->

<svg
   xmlns:dc="http://purl.org/dc/elements/1.1/"
   xmlns:cc="http://creativecommons.org/ns#"
   xmlns:rdf="http://www.w3.org/1999/02/22-rdf-syntax-ns#"
   xmlns:svg="http://www.w3.org/2000/svg"
   xmlns="http://www.w3.org/2000/svg"
   xmlns:sodipodi="http://sodipodi.sourceforge.net/DTD/sodipodi-0.dtd"
   xmlns:inkscape="http://www.inkscape.org/namespaces/inkscape"
   width="368.02563"
   height="356.1897"
   viewBox="0 0 294.67701 284.95176"
   id="svg2"
   version="1.1"
   inkscape:version="0.48.1 "
   sodipodi:docname="B_B.svg"
   inkscape:export-filename="D:\My Documents\NQC project\eclipse-workspaces\mm-runtime\models\TransformationExamples\dot\Bi2Uni_uni\B_B.png"
   inkscape:export-xdpi="150"
   inkscape:export-ydpi="150">
  <metadata
     id="metadata99">
    <rdf:RDF>
      <cc:Work
         rdf:about="">
        <dc:format>image/svg+xml</dc:format>
        <dc:type
           rdf:resource="http://purl.org/dc/dcmitype/StillImage" />
        <dc:title></dc:title>
      </cc:Work>
    </rdf:RDF>
  </metadata>
  <defs
     id="defs97" />
  <sodipodi:namedview
     pagecolor="#ffffff"
     bordercolor="#666666"
     borderopacity="1"
     objecttolerance="10"
     gridtolerance="10"
     guidetolerance="10"
     inkscape:pageopacity="0"
     inkscape:pageshadow="2"
     inkscape:window-width="1680"
     inkscape:window-height="998"
     id="namedview95"
     showgrid="false"
     fit-margin-top="0"
     fit-margin-left="0"
     fit-margin-right="0"
     fit-margin-bottom="0"
     inkscape:zoom="1.430137"
     inkscape:cx="68.971116"
     inkscape:cy="194.56676"
     inkscape:window-x="-8"
     inkscape:window-y="-8"
     inkscape:window-maximized="1"
     inkscape:current-layer="svg2" />
  <g
     class="node"
     id="node1"
     transform="translate(4.8038844,284.5728)">
    <title
       id="title10">Initial_extra</title>
    <ellipse
       style="fill:#000000;stroke:#000000"
       sodipodi:ry="7.1999998"
       sodipodi:rx="7.1999998"
       sodipodi:cy="-277"
       sodipodi:cx="71.230202"
       d="m 78.430202,-277 c 0,3.97645 -3.22355,7.2 -7.2,7.2 -3.97645,0 -7.2,-3.22355 -7.2,-7.2 0,-3.97645 3.22355,-7.2 7.2,-7.2 3.97645,0 7.2,3.22355 7.2,7.2 z"
       id="ellipse12"
       ry="7.1999998"
       rx="7.1999998"
       cy="-277"
       cx="71.230202" />
  </g>
  <g
     class="node"
     id="node2"
     transform="translate(4.8038844,284.5728)">
    <title
       id="title15">Initial</title>
    <polyline
       style="fill:none;stroke:#000000"
       id="polyline17"
       points="25.7302,-173 116.73,-173 " />
    <path
       style="fill:none;stroke:#000000"
       inkscape:connector-curvature="0"
       id="path19"
       d="m 116.73,-173 c 6,0 12,-6 12,-12" />
    <polyline
       style="fill:none;stroke:#000000"
       id="polyline21"
       points="128.73,-185 128.73,-219 " />
    <path
       style="fill:none;stroke:#000000"
       inkscape:connector-curvature="0"
       id="path23"
       d="m 128.73,-219 c 0,-6 -6,-12 -12,-12" />
    <polyline
       style="fill:none;stroke:#000000"
       id="polyline25"
       points="116.73,-231 25.7302,-231 " />
    <path
       style="fill:none;stroke:#000000"
       inkscape:connector-curvature="0"
       id="path27"
       d="m 25.7302,-231 c -6,0 -12,6 -12,12" />
    <polyline
       style="fill:none;stroke:#000000"
       id="polyline29"
       points="13.7302,-219 13.7302,-185 " />
    <path
       style="fill:none;stroke:#000000"
       inkscape:connector-curvature="0"
       id="path31"
       d="m 13.7302,-185 c 0,6 6,12 12,12" />
    <text
       style="font-size:14px;text-anchor:middle;font-family:'Times New Roman,serif'"
       id="text33"
       font-size="14.00"
       y="-197.39999"
       x="71.230202">Initial</text>
  </g>
  <g
     class="edge"
     id="edge2"
     transform="translate(4.8038844,284.5728)">
    <title
       id="title36">Initial_extra-&gt;Initial</title>
    <path
       style="fill:none;stroke:#000000"
       inkscape:connector-curvature="0"
       id="path38"
       d="m 71.2302,-269.535 c 0,6.795 0,17.387 0,28.184" />
    <polygon
       style="fill:#000000;stroke:#000000"
       id="polygon40"
       points="71.2302,-231.054 67.7303,-241.054 74.7303,-241.054 74.7303,-241.054 " />
  </g>
  <g
     class="node"
     id="node5"
     transform="translate(4.8038844,284.5728)">
    <title
       id="title43">Final</title>
    <polyline
       style="fill:none;stroke:#000000"
       id="polyline45"
       points="25.7302,-61 116.73,-61 " />
    <path
       style="fill:none;stroke:#000000"
       inkscape:connector-curvature="0"
       id="path47"
       d="m 116.73,-61 c 6,0 12,-6 12,-12" />
    <polyline
       style="fill:none;stroke:#000000"
       id="polyline49"
       points="128.73,-73 128.73,-107 " />
    <path
       style="fill:none;stroke:#000000"
       inkscape:connector-curvature="0"
       id="path51"
       d="m 128.73,-107 c 0,-6 -6,-12 -12,-12" />
    <polyline
       style="fill:none;stroke:#000000"
       id="polyline53"
       points="116.73,-119 25.7302,-119 " />
    <path
       style="fill:none;stroke:#000000"
       inkscape:connector-curvature="0"
       id="path55"
       d="m 25.7302,-119 c -6,0 -12,6 -12,12" />
    <polyline
       style="fill:none;stroke:#000000"
       id="polyline57"
       points="13.7302,-107 13.7302,-73 " />
    <path
       style="fill:none;stroke:#000000"
       inkscape:connector-curvature="0"
       id="path59"
       d="m 13.7302,-73 c 0,6 6,12 12,12" />
    <text
       style="font-size:14px;text-anchor:middle;font-family:'Times New Roman,serif'"
       id="text61"
       font-size="14.00"
       y="-85.400002"
       x="71.230202">Final</text>
  </g>
  <path
     d="M 18.150203,94.471699 C -9.9918436,127.70944 1.4785939,165.54096 11.909257,178.86715"
     id="path66"
     inkscape:connector-curvature="0"
     style="fill:none;stroke:#000000"
     sodipodi:nodetypes="cc" />
  <polygon
     points="9.94819,-128.759 9.94819,-128.759 14.4399,-119.164 4.94468,-123.864 "
     id="polygon68"
     style="fill:#000000;stroke:#000000"
     transform="translate(3.4494486,303.04865)" />
  <text
     x="68.598778"
     y="143.73268"
     font-size="14.00"
     id="text70"
     style="font-size:14px;font-style:normal;font-variant:normal;font-weight:normal;font-stretch:normal;text-anchor:middle;font-family:Arial;-inkscape-font-specification:Arial"><tspan
   style="font-weight:bold"
   id="tspan3130">send</tspan>
 S() <tspan
   style="font-weight:bold"
   id="tspan3132">to</tspan>
 Port_out</text>
  <path
     d="m 133.74625,95.350448 c 29.04019,15.404872 33.14958,64.681022 9.52687,85.135072"
     id="path75"
     inkscape:connector-curvature="0"
     style="fill:none;stroke:#000000"
     sodipodi:nodetypes="cc" />
  <polygon
     points="118.741,-125.334 118.741,-125.334 110.022,-119.314 113.084,-129.457 "
     id="polygon77"
     style="fill:#000000;stroke:#000000;stroke-width:1"
     transform="matrix(0.8660254,0.50000001,-0.50000001,0.8660254,-20.955854,232.66039)" />
  <text
     x="218.56567"
     y="95.023605"
     font-size="14.00"
     id="text79"
     style="font-size:14px;font-style:normal;font-variant:normal;font-weight:normal;font-stretch:normal;text-anchor:middle;font-family:Arial;-inkscape-font-specification:Arial"><tspan
   style="font-weight:bold"
   id="tspan3136">receive</tspan>
 S() <tspan
   style="font-weight:bold"
   id="tspan3138">from</tspan>
 Port_in</text>
  <g
     class="node"
     id="node4"
     transform="translate(4.8038844,284.5728)">
    <title
       id="title82">Final_extra</title>
    <ellipse
       style="fill:#000000;stroke:#000000"
       sodipodi:ry="7"
       sodipodi:rx="7"
       sodipodi:cy="-11"
       sodipodi:cx="71.230202"
       d="m 78.230202,-11 c 0,3.8659932 -3.134007,7 -7,7 -3.865994,0 -7,-3.1340068 -7,-7 0,-3.865993 3.134006,-7 7,-7 3.865993,0 7,3.134007 7,7 z"
       id="ellipse84"
       ry="7"
       rx="7"
       cy="-11"
       cx="71.230202" />
    <ellipse
       style="fill:none;stroke:#000000"
       sodipodi:ry="11"
       sodipodi:rx="11"
       sodipodi:cy="-11"
       sodipodi:cx="71.230202"
       d="m 82.230202,-11 c 0,6.0751322 -4.924868,11 -11,11 -6.075133,0 -11,-4.9248678 -11,-11 0,-6.075132 4.924867,-11 11,-11 6.075132,0 11,4.924868 11,11 z"
       id="ellipse86"
       ry="11"
       rx="11"
       cy="-11"
       cx="71.230202" />
  </g>
  <g
     class="edge"
     id="edge4"
     transform="translate(4.8038844,284.5728)">
    <title
       id="title89">Final-&gt;Final_extra</title>
    <path
       style="fill:none;stroke:#000000"
       inkscape:connector-curvature="0"
       id="path91"
       d="m 71.2302,-60.5833 c 0,9.3769 0,19.5664 0,28.2556" />
    <polygon
       style="fill:#000000;stroke:#000000"
       id="polygon93"
       points="71.2302,-22.2978 67.7303,-32.2978 74.7303,-32.2977 74.7303,-32.2977 " />
  </g>
</svg>
