<?xml version="1.0" encoding="UTF-8" standalone="no"?>
<!DOCTYPE svg PUBLIC "-//W3C//DTD SVG 1.1//EN"
 "http://www.w3.org/Graphics/SVG/1.1/DTD/svg11.dtd">
<!-- Generated by graphviz version 2.26.3 (20100126.1600)
 -->
<!-- Title: CloneClasses Pages: 1 -->
<svg width="208pt" height="184pt"
 viewBox="0.00 0.00 208.00 184.00" xmlns="http://www.w3.org/2000/svg" xmlns:xlink="http://www.w3.org/1999/xlink">
<g id="graph1" class="graph" transform="scale(1 1) rotate(0) translate(4 180)">
<title>CloneClasses</title>
<polygon fill="white" stroke="white" points="-4,5 -4,-180 205,-180 205,5 -4,5"/>
<g id="graph2" class="cluster"><title>cluster_c</title>
<polygon fill="none" stroke="black" points="122,-8 122,-84 192,-84 192,-8 122,-8"/>
<text text-anchor="middle" x="157" y="-67.4" font-family="Times New Roman,serif" font-size="14.00">c: C</text>
</g>
<g id="graph3" class="cluster"><title>cluster_a1</title>
<polygon fill="none" stroke="black" points="8,-92 8,-168 78,-168 78,-92 8,-92"/>
<text text-anchor="middle" x="43" y="-151.4" font-family="Times New Roman,serif" font-size="14.00">a1: A_c</text>
</g>
<g id="graph4" class="cluster"><title>cluster_a2</title>
<polygon fill="none" stroke="black" points="8,-8 8,-84 78,-84 78,-8 8,-8"/>
<text text-anchor="middle" x="43" y="-67.4" font-family="Times New Roman,serif" font-size="14.00">a2: A</text>
</g>
<g id="graph5" class="cluster"><title>cluster_b</title>
<polygon fill="none" stroke="black" points="122,-92 122,-168 192,-168 192,-92 122,-92"/>
<text text-anchor="middle" x="157" y="-151.4" font-family="Times New Roman,serif" font-size="14.00">b: B_c</text>
</g>
<!-- c_In -->
<g id="node2" class="node"><title>c_In</title>
<polygon fill="none" stroke="black" points="184,-52 130,-52 130,-16 184,-16 184,-52"/>
<text text-anchor="middle" x="157" y="-29.4" font-family="Times New Roman,serif" font-size="14.00">In</text>
</g>
<!-- a1_Out -->
<g id="node4" class="node"><title>a1_Out</title>
<polygon fill="none" stroke="black" points="70,-136 16,-136 16,-100 70,-100 70,-136"/>
<text text-anchor="middle" x="43" y="-113.4" font-family="Times New Roman,serif" font-size="14.00">Out</text>
</g>
<!-- b_In -->
<g id="node8" class="node"><title>b_In</title>
<polygon fill="none" stroke="black" points="184,-136 130,-136 130,-100 184,-100 184,-136"/>
<text text-anchor="middle" x="157" y="-113.4" font-family="Times New Roman,serif" font-size="14.00">In</text>
</g>
<!-- a1_Out&#45;&gt;b_In -->
<g id="edge8" class="edge"><title>a1_Out&#45;&gt;b_In</title>
<path fill="none" stroke="black" d="M70.0164,-118C84.8155,-118 103.384,-118 119.561,-118"/>
<polygon fill="black" stroke="black" points="119.782,-121.5 129.782,-118 119.782,-114.5 119.782,-121.5"/>
<text text-anchor="middle" x="100" y="-121.4" font-family="Times New Roman,serif" font-size="14.00">c1()</text>
</g>
<!-- a2_Out -->
<g id="node6" class="node"><title>a2_Out</title>
<polygon fill="none" stroke="black" points="70,-52 16,-52 16,-16 70,-16 70,-52"/>
<text text-anchor="middle" x="43" y="-29.4" font-family="Times New Roman,serif" font-size="14.00">Out</text>
</g>
<!-- a2_Out&#45;&gt;c_In -->
<g id="edge6" class="edge"><title>a2_Out&#45;&gt;c_In</title>
<path fill="none" stroke="black" d="M70.0164,-34C84.8155,-34 103.384,-34 119.561,-34"/>
<polygon fill="black" stroke="black" points="119.782,-37.5001 129.782,-34 119.782,-30.5001 119.782,-37.5001"/>
<text text-anchor="middle" x="100" y="-37.4" font-family="Times New Roman,serif" font-size="14.00">c2()</text>
</g>
</g>
</svg>
