<?xml version="1.0" encoding="UTF-8" standalone="no"?>
<!DOCTYPE svg PUBLIC "-//W3C//DTD SVG 1.1//EN"
 "http://www.w3.org/Graphics/SVG/1.1/DTD/svg11.dtd">
<!-- Generated by graphviz version 2.26.3 (20100126.1600)
 -->
<!-- Title: B Pages: 1 -->
<svg width="232pt" height="436pt"
 viewBox="0.00 0.00 232.41 436.00" xmlns="http://www.w3.org/2000/svg" xmlns:xlink="http://www.w3.org/1999/xlink">
<g id="graph1" class="graph" transform="scale(1 1) rotate(0) translate(4 432)">
<title>B</title>
<polygon fill="white" stroke="white" points="-4,5 -4,-432 229.414,-432 229.414,5 -4,5"/>
<!-- Initial_extra -->
<g id="node1" class="node"><title>Initial_extra</title>
<ellipse fill="black" stroke="black" cx="59.4139" cy="-421" rx="7.2" ry="7.2"/>
</g>
<!-- Initial -->
<g id="node2" class="node"><title>Initial</title>
<polyline fill="none" stroke="black" points="13.9139,-317 104.914,-317 "/>
<path fill="none" stroke="black" d="M104.914,-317C110.914,-317 116.914,-323 116.914,-329"/>
<polyline fill="none" stroke="black" points="116.914,-329 116.914,-363 "/>
<path fill="none" stroke="black" d="M116.914,-363C116.914,-369 110.914,-375 104.914,-375"/>
<polyline fill="none" stroke="black" points="104.914,-375 13.9139,-375 "/>
<path fill="none" stroke="black" d="M13.9139,-375C7.9139,-375 1.9139,-369 1.9139,-363"/>
<polyline fill="none" stroke="black" points="1.9139,-363 1.9139,-329 "/>
<path fill="none" stroke="black" d="M1.9139,-329C1.9139,-323 7.9139,-317 13.9139,-317"/>
<text text-anchor="middle" x="59.4139" y="-341.4" font-family="Times New Roman,serif" font-size="14.00">Initial</text>
</g>
<!-- Initial_extra&#45;&gt;Initial -->
<g id="edge2" class="edge"><title>Initial_extra&#45;&gt;Initial</title>
<path fill="none" stroke="black" d="M59.4139,-413.535C59.4139,-406.74 59.4139,-396.148 59.4139,-385.351"/>
<polygon fill="black" stroke="black" points="62.914,-385.054 59.4139,-375.054 55.914,-385.054 62.914,-385.054"/>
</g>
<!-- Initial&#45;&gt;Initial -->
<g id="edge10" class="edge"><title>Initial&#45;&gt;Initial</title>
<path fill="none" stroke="black" d="M116.958,-354.472C127.235,-353.371 134.414,-350.547 134.414,-346 134.414,-343.158 131.61,-340.989 126.998,-339.494"/>
<polygon fill="black" stroke="black" points="127.445,-336.015 116.958,-337.528 126.099,-342.884 127.445,-336.015"/>
<text text-anchor="middle" x="179.414" y="-357.4" font-family="Times New Roman,serif" font-size="14.00">recvar_In == 4;</text>
<text text-anchor="middle" x="179.414" y="-341.4" font-family="Times New Roman,serif" font-size="14.00"> recvar_In := 3;</text>
<text text-anchor="middle" x="179.414" y="-325.4" font-family="Times New Roman,serif" font-size="14.00"> send A(0) to In</text>
</g>
<!-- Initial_1_0_A_1 -->
<g id="node4" class="node"><title>Initial_1_0_A_1</title>
<polyline fill="none" stroke="black" points="13.9139,-189 104.914,-189 "/>
<path fill="none" stroke="black" d="M104.914,-189C110.914,-189 116.914,-195 116.914,-201"/>
<polyline fill="none" stroke="black" points="116.914,-201 116.914,-235 "/>
<path fill="none" stroke="black" d="M116.914,-235C116.914,-241 110.914,-247 104.914,-247"/>
<polyline fill="none" stroke="black" points="104.914,-247 13.9139,-247 "/>
<path fill="none" stroke="black" d="M13.9139,-247C7.9139,-247 1.9139,-241 1.9139,-235"/>
<polyline fill="none" stroke="black" points="1.9139,-235 1.9139,-201 "/>
<path fill="none" stroke="black" d="M1.9139,-201C1.9139,-195 7.9139,-189 13.9139,-189"/>
<text text-anchor="middle" x="59.4139" y="-213.4" font-family="Times New Roman,serif" font-size="14.00">Initial_1_0_A_1</text>
</g>
<!-- Initial&#45;&gt;Initial_1_0_A_1 -->
<g id="edge6" class="edge"><title>Initial&#45;&gt;Initial_1_0_A_1</title>
<path fill="none" stroke="black" d="M17.5949,-316.848C12.2534,-311.237 7.56052,-304.923 4.4139,-298 -1.4713,-285.053 -1.4713,-278.947 4.4139,-266 6.18388,-262.106 8.4431,-258.405 11.0318,-254.912"/>
<polygon fill="black" stroke="black" points="13.8098,-257.048 17.5949,-247.152 8.46492,-252.527 13.8098,-257.048"/>
<text text-anchor="middle" x="49.4139" y="-285.4" font-family="Times New Roman,serif" font-size="14.00">recvar_In == 1;</text>
<text text-anchor="middle" x="49.4139" y="-269.4" font-family="Times New Roman,serif" font-size="14.00"> send A(2) to In</text>
</g>
<!-- Initial_1_0_A_1&#45;&gt;Initial -->
<g id="edge12" class="edge"><title>Initial_1_0_A_1&#45;&gt;Initial</title>
<path fill="none" stroke="black" d="M84.9758,-247.114C88.8553,-253.011 92.273,-259.43 94.4139,-266 98.8204,-279.522 98.8204,-284.478 94.4139,-298 93.31,-301.388 91.8666,-304.735 90.1955,-307.992"/>
<polygon fill="black" stroke="black" points="87.0188,-306.49 84.9758,-316.886 93.0559,-310.033 87.0188,-306.49"/>
<text text-anchor="middle" x="139.914" y="-277.4" font-family="Times New Roman,serif" font-size="14.00">recvar_In == 4</text>
</g>
<!-- Final -->
<g id="node6" class="node"><title>Final</title>
<polyline fill="none" stroke="black" points="13.9139,-61 104.914,-61 "/>
<path fill="none" stroke="black" d="M104.914,-61C110.914,-61 116.914,-67 116.914,-73"/>
<polyline fill="none" stroke="black" points="116.914,-73 116.914,-107 "/>
<path fill="none" stroke="black" d="M116.914,-107C116.914,-113 110.914,-119 104.914,-119"/>
<polyline fill="none" stroke="black" points="104.914,-119 13.9139,-119 "/>
<path fill="none" stroke="black" d="M13.9139,-119C7.9139,-119 1.9139,-113 1.9139,-107"/>
<polyline fill="none" stroke="black" points="1.9139,-107 1.9139,-73 "/>
<path fill="none" stroke="black" d="M1.9139,-73C1.9139,-67 7.9139,-61 13.9139,-61"/>
<text text-anchor="middle" x="59.4139" y="-85.4" font-family="Times New Roman,serif" font-size="14.00">Final</text>
</g>
<!-- Initial_1_0_A_1&#45;&gt;Final -->
<g id="edge8" class="edge"><title>Initial_1_0_A_1&#45;&gt;Final</title>
<path fill="none" stroke="black" d="M59.4139,-188.955C59.4139,-171.404 59.4139,-148.795 59.4139,-129.619"/>
<polygon fill="black" stroke="black" points="62.914,-129.373 59.4139,-119.373 55.914,-129.373 62.914,-129.373"/>
<text text-anchor="middle" x="104.414" y="-157.4" font-family="Times New Roman,serif" font-size="14.00">recvar_In == 3;</text>
<text text-anchor="middle" x="104.414" y="-141.4" font-family="Times New Roman,serif" font-size="14.00"> send A(0) to In</text>
</g>
<!-- Final_extra -->
<g id="node5" class="node"><title>Final_extra</title>
<ellipse fill="black" stroke="black" cx="59.4139" cy="-11" rx="7" ry="7"/>
<ellipse fill="none" stroke="black" cx="59.4139" cy="-11" rx="11" ry="11"/>
</g>
<!-- Final&#45;&gt;Final_extra -->
<g id="edge4" class="edge"><title>Final&#45;&gt;Final_extra</title>
<path fill="none" stroke="black" d="M59.4139,-60.5833C59.4139,-51.2064 59.4139,-41.0169 59.4139,-32.3277"/>
<polygon fill="black" stroke="black" points="62.914,-32.2977 59.4139,-22.2978 55.914,-32.2978 62.914,-32.2977"/>
</g>
</g>
</svg>
