<?xml version="1.0" encoding="UTF-8" standalone="no"?>
<!DOCTYPE svg PUBLIC "-//W3C//DTD SVG 1.1//EN"
 "http://www.w3.org/Graphics/SVG/1.1/DTD/svg11.dtd">
<!-- Generated by graphviz version 2.26.3 (20100126.1600)
 -->
<!-- Title: MergeObjects1 Pages: 1 -->
<svg width="204pt" height="100pt"
 viewBox="0.00 0.00 204.00 100.00" xmlns="http://www.w3.org/2000/svg" xmlns:xlink="http://www.w3.org/1999/xlink">
<g id="graph1" class="graph" transform="scale(1 1) rotate(0) translate(4 96)">
<title>MergeObjects1</title>
<polygon fill="white" stroke="white" points="-4,5 -4,-96 201,-96 201,5 -4,5"/>
<g id="graph2" class="cluster"><title>cluster_a</title>
<polygon fill="none" stroke="black" points="8,-8 8,-84 78,-84 78,-8 8,-8"/>
<text text-anchor="middle" x="43" y="-67.4" font-family="Times New Roman,serif" font-size="14.00">a: A</text>
</g>
<g id="graph3" class="cluster"><title>cluster_b</title>
<polygon fill="none" stroke="black" points="118,-8 118,-84 188,-84 188,-8 118,-8"/>
<text text-anchor="middle" x="153" y="-67.4" font-family="Times New Roman,serif" font-size="14.00">b: B</text>
</g>
<!-- a_Out -->
<g id="node2" class="node"><title>a_Out</title>
<polygon fill="none" stroke="black" points="70,-52 16,-52 16,-16 70,-16 70,-52"/>
<text text-anchor="middle" x="43" y="-29.4" font-family="Times New Roman,serif" font-size="14.00">Out</text>
</g>
<!-- b_In -->
<g id="node4" class="node"><title>b_In</title>
<polygon fill="none" stroke="black" points="180,-52 126,-52 126,-16 180,-16 180,-52"/>
<text text-anchor="middle" x="153" y="-29.4" font-family="Times New Roman,serif" font-size="14.00">In</text>
</g>
<!-- a_Out&#45;&gt;b_In -->
<g id="edge4" class="edge"><title>a_Out&#45;&gt;b_In</title>
<path fill="none" stroke="black" d="M70.191,-34C83.809,-34 100.514,-34 115.344,-34"/>
<polygon fill="black" stroke="black" points="115.741,-37.5001 125.741,-34 115.741,-30.5001 115.741,-37.5001"/>
<text text-anchor="middle" x="98" y="-37.4" font-family="Times New Roman,serif" font-size="14.00">C()</text>
</g>
</g>
</svg>
