<?xml version="1.0" encoding="UTF-8" standalone="no"?>
<!DOCTYPE svg PUBLIC "-//W3C//DTD SVG 1.1//EN"
 "http://www.w3.org/Graphics/SVG/1.1/DTD/svg11.dtd">
<!-- Generated by graphviz version 2.26.3 (20100126.1600)
 -->
<!-- Title: A Pages: 1 -->
<svg width="269pt" height="308pt"
 viewBox="0.00 0.00 269.00 308.00" xmlns="http://www.w3.org/2000/svg" xmlns:xlink="http://www.w3.org/1999/xlink">
<g id="graph1" class="graph" transform="scale(1 1) rotate(0) translate(4 304)">
<title>A</title>
<polygon fill="white" stroke="white" points="-4,5 -4,-304 266,-304 266,5 -4,5"/>
<!-- Initial_extra -->
<g id="node1" class="node"><title>Initial_extra</title>
<ellipse fill="black" stroke="black" cx="57" cy="-293" rx="7.2" ry="7.2"/>
</g>
<!-- Initial -->
<g id="node2" class="node"><title>Initial</title>
<polyline fill="none" stroke="black" points="11.5,-189 102.5,-189 "/>
<path fill="none" stroke="black" d="M102.5,-189C108.5,-189 114.5,-195 114.5,-201"/>
<polyline fill="none" stroke="black" points="114.5,-201 114.5,-235 "/>
<path fill="none" stroke="black" d="M114.5,-235C114.5,-241 108.5,-247 102.5,-247"/>
<polyline fill="none" stroke="black" points="102.5,-247 11.5,-247 "/>
<path fill="none" stroke="black" d="M11.5,-247C5.5,-247 -0.5,-241 -0.5,-235"/>
<polyline fill="none" stroke="black" points="-0.5,-235 -0.5,-201 "/>
<path fill="none" stroke="black" d="M-0.5,-201C-0.5,-195 5.5,-189 11.5,-189"/>
<text text-anchor="middle" x="57" y="-213.4" font-family="Times New Roman,serif" font-size="14.00">Initial</text>
</g>
<!-- Initial_extra&#45;&gt;Initial -->
<g id="edge2" class="edge"><title>Initial_extra&#45;&gt;Initial</title>
<path fill="none" stroke="black" d="M57,-285.535C57,-278.74 57,-268.148 57,-257.351"/>
<polygon fill="black" stroke="black" points="60.5001,-257.054 57,-247.054 53.5001,-257.054 60.5001,-257.054"/>
</g>
<!-- Final -->
<g id="node5" class="node"><title>Final</title>
<polyline fill="none" stroke="black" points="11.5,-61 102.5,-61 "/>
<path fill="none" stroke="black" d="M102.5,-61C108.5,-61 114.5,-67 114.5,-73"/>
<polyline fill="none" stroke="black" points="114.5,-73 114.5,-107 "/>
<path fill="none" stroke="black" d="M114.5,-107C114.5,-113 108.5,-119 102.5,-119"/>
<polyline fill="none" stroke="black" points="102.5,-119 11.5,-119 "/>
<path fill="none" stroke="black" d="M11.5,-119C5.5,-119 -0.5,-113 -0.5,-107"/>
<polyline fill="none" stroke="black" points="-0.5,-107 -0.5,-73 "/>
<path fill="none" stroke="black" d="M-0.5,-73C-0.5,-67 5.5,-61 11.5,-61"/>
<text text-anchor="middle" x="57" y="-85.4" font-family="Times New Roman,serif" font-size="14.00">Final</text>
</g>
<!-- Initial&#45;&gt;Final -->
<g id="edge6" class="edge"><title>Initial&#45;&gt;Final</title>
<path fill="none" stroke="black" d="M57,-188.955C57,-171.404 57,-148.795 57,-129.619"/>
<polygon fill="black" stroke="black" points="60.5001,-129.373 57,-119.373 53.5001,-129.373 60.5001,-129.373"/>
<text text-anchor="middle" x="159" y="-157.4" font-family="Times New Roman,serif" font-size="14.00">send Send_S() to Out;</text>
<text text-anchor="middle" x="159" y="-141.4" font-family="Times New Roman,serif" font-size="14.00"> receive Acknowledge_S() from Out</text>
</g>
<!-- Final_extra -->
<g id="node4" class="node"><title>Final_extra</title>
<ellipse fill="black" stroke="black" cx="57" cy="-11" rx="7" ry="7"/>
<ellipse fill="none" stroke="black" cx="57" cy="-11" rx="11" ry="11"/>
</g>
<!-- Final&#45;&gt;Final_extra -->
<g id="edge4" class="edge"><title>Final&#45;&gt;Final_extra</title>
<path fill="none" stroke="black" d="M57,-60.5833C57,-51.2064 57,-41.0169 57,-32.3277"/>
<polygon fill="black" stroke="black" points="60.5001,-32.2977 57,-22.2978 53.5001,-32.2978 60.5001,-32.2977"/>
</g>
</g>
</svg>
