<?xml version="1.0" encoding="UTF-8" standalone="no"?>
<!DOCTYPE svg PUBLIC "-//W3C//DTD SVG 1.1//EN"
 "http://www.w3.org/Graphics/SVG/1.1/DTD/svg11.dtd">
<!-- Generated by graphviz version 2.26.3 (20100126.1600)
 -->
<!-- Title: A Pages: 1 -->
<svg width="122pt" height="292pt"
 viewBox="0.00 0.00 122.00 292.00" xmlns="http://www.w3.org/2000/svg" xmlns:xlink="http://www.w3.org/1999/xlink">
<g id="graph1" class="graph" transform="scale(1 1) rotate(0) translate(4 288)">
<title>A</title>
<polygon fill="white" stroke="white" points="-4,5 -4,-288 119,-288 119,5 -4,5"/>
<!-- Initial_extra -->
<g id="node1" class="node"><title>Initial_extra</title>
<ellipse fill="black" stroke="black" cx="57" cy="-277" rx="7.2" ry="7.2"/>
</g>
<!-- Initial -->
<g id="node2" class="node"><title>Initial</title>
<polyline fill="none" stroke="black" points="11.5,-173 102.5,-173 "/>
<path fill="none" stroke="black" d="M102.5,-173C108.5,-173 114.5,-179 114.5,-185"/>
<polyline fill="none" stroke="black" points="114.5,-185 114.5,-219 "/>
<path fill="none" stroke="black" d="M114.5,-219C114.5,-225 108.5,-231 102.5,-231"/>
<polyline fill="none" stroke="black" points="102.5,-231 11.5,-231 "/>
<path fill="none" stroke="black" d="M11.5,-231C5.5,-231 -0.5,-225 -0.5,-219"/>
<polyline fill="none" stroke="black" points="-0.5,-219 -0.5,-185 "/>
<path fill="none" stroke="black" d="M-0.5,-185C-0.5,-179 5.5,-173 11.5,-173"/>
<text text-anchor="middle" x="57" y="-197.4" font-family="Times New Roman,serif" font-size="14.00">Initial</text>
</g>
<!-- Initial_extra&#45;&gt;Initial -->
<g id="edge2" class="edge"><title>Initial_extra&#45;&gt;Initial</title>
<path fill="none" stroke="black" d="M57,-269.535C57,-262.74 57,-252.148 57,-241.351"/>
<polygon fill="black" stroke="black" points="60.5001,-241.054 57,-231.054 53.5001,-241.054 60.5001,-241.054"/>
</g>
<!-- Final -->
<g id="node5" class="node"><title>Final</title>
<polyline fill="none" stroke="black" points="11.5,-61 102.5,-61 "/>
<path fill="none" stroke="black" d="M102.5,-61C108.5,-61 114.5,-67 114.5,-73"/>
<polyline fill="none" stroke="black" points="114.5,-73 114.5,-107 "/>
<path fill="none" stroke="black" d="M114.5,-107C114.5,-113 108.5,-119 102.5,-119"/>
<polyline fill="none" stroke="black" points="102.5,-119 11.5,-119 "/>
<path fill="none" stroke="black" d="M11.5,-119C5.5,-119 -0.5,-113 -0.5,-107"/>
<polyline fill="none" stroke="black" points="-0.5,-107 -0.5,-73 "/>
<path fill="none" stroke="black" d="M-0.5,-73C-0.5,-67 5.5,-61 11.5,-61"/>
<text text-anchor="middle" x="57" y="-85.4" font-family="Times New Roman,serif" font-size="14.00">Final</text>
</g>
<!-- Initial&#45;&gt;Final -->
<g id="edge6" class="edge"><title>Initial&#45;&gt;Final</title>
<path fill="none" stroke="black" d="M19.4173,-172.907C14.3662,-167.217 9.9252,-160.863 7,-154 3.01952,-144.661 5.23314,-135.513 10.4715,-127.186"/>
<polygon fill="black" stroke="black" points="13.3147,-129.23 16.6008,-119.158 7.75074,-124.982 13.3147,-129.23"/>
<text text-anchor="middle" x="51" y="-141.4" font-family="Times New Roman,serif" font-size="14.00">send S() to Out</text>
</g>
<!-- Initial&#45;&gt;Final -->
<g id="edge8" class="edge"><title>Initial&#45;&gt;Final</title>
<path fill="none" stroke="black" d="M87.0898,-172.944C94.4732,-162.391 99.2037,-150.082 95,-138 93.7754,-134.48 92.1735,-131.024 90.3204,-127.681"/>
<polygon fill="black" stroke="black" points="93.2157,-125.71 84.9159,-119.125 87.2976,-129.449 93.2157,-125.71"/>
</g>
<!-- Final_extra -->
<g id="node4" class="node"><title>Final_extra</title>
<ellipse fill="black" stroke="black" cx="57" cy="-11" rx="7" ry="7"/>
<ellipse fill="none" stroke="black" cx="57" cy="-11" rx="11" ry="11"/>
</g>
<!-- Final&#45;&gt;Final_extra -->
<g id="edge4" class="edge"><title>Final&#45;&gt;Final_extra</title>
<path fill="none" stroke="black" d="M57,-60.5833C57,-51.2064 57,-41.0169 57,-32.3277"/>
<polygon fill="black" stroke="black" points="60.5001,-32.2977 57,-22.2978 53.5001,-32.2978 60.5001,-32.2977"/>
</g>
</g>
</svg>
