<?xml version="1.0" encoding="UTF-8" standalone="no"?>
<!DOCTYPE svg PUBLIC "-//W3C//DTD SVG 1.1//EN"
 "http://www.w3.org/Graphics/SVG/1.1/DTD/svg11.dtd">
<!-- Generated by graphviz version 2.26.3 (20100126.1600)
 -->
<!-- Title: A Pages: 1 -->
<svg width="225pt" height="452pt"
 viewBox="0.00 0.00 224.77 452.00" xmlns="http://www.w3.org/2000/svg" xmlns:xlink="http://www.w3.org/1999/xlink">
<g id="graph1" class="graph" transform="scale(1 1) rotate(0) translate(4 448)">
<title>A</title>
<polygon fill="white" stroke="white" points="-4,5 -4,-448 221.77,-448 221.77,5 -4,5"/>
<!-- Initial_extra -->
<g id="node1" class="node"><title>Initial_extra</title>
<ellipse fill="black" stroke="black" cx="68.7703" cy="-437" rx="7.2" ry="7.2"/>
</g>
<!-- Initial -->
<g id="node2" class="node"><title>Initial</title>
<polyline fill="none" stroke="black" points="23.2703,-333 114.27,-333 "/>
<path fill="none" stroke="black" d="M114.27,-333C120.27,-333 126.27,-339 126.27,-345"/>
<polyline fill="none" stroke="black" points="126.27,-345 126.27,-379 "/>
<path fill="none" stroke="black" d="M126.27,-379C126.27,-385 120.27,-391 114.27,-391"/>
<polyline fill="none" stroke="black" points="114.27,-391 23.2703,-391 "/>
<path fill="none" stroke="black" d="M23.2703,-391C17.2703,-391 11.2703,-385 11.2703,-379"/>
<polyline fill="none" stroke="black" points="11.2703,-379 11.2703,-345 "/>
<path fill="none" stroke="black" d="M11.2703,-345C11.2703,-339 17.2703,-333 23.2703,-333"/>
<text text-anchor="middle" x="68.7703" y="-357.4" font-family="Times New Roman,serif" font-size="14.00">Initial</text>
</g>
<!-- Initial_extra&#45;&gt;Initial -->
<g id="edge2" class="edge"><title>Initial_extra&#45;&gt;Initial</title>
<path fill="none" stroke="black" d="M68.7703,-429.535C68.7703,-422.74 68.7703,-412.148 68.7703,-401.351"/>
<polygon fill="black" stroke="black" points="72.2704,-401.054 68.7703,-391.054 65.2704,-401.054 72.2704,-401.054"/>
</g>
<!-- Initial&#45;&gt;Initial -->
<g id="edge8" class="edge"><title>Initial&#45;&gt;Initial</title>
<path fill="none" stroke="black" d="M126.315,-370.472C136.592,-369.371 143.77,-366.547 143.77,-362 143.77,-359.158 140.966,-356.989 136.354,-355.494"/>
<polygon fill="black" stroke="black" points="136.801,-352.015 126.315,-353.528 135.456,-358.884 136.801,-352.015"/>
<text text-anchor="middle" x="160.27" y="-357.4" font-family="Times New Roman,serif" font-size="14.00">v := v</text>
</g>
<!-- Initial_1_0_A_1 -->
<g id="node4" class="node"><title>Initial_1_0_A_1</title>
<polyline fill="none" stroke="black" points="23.2703,-205 114.27,-205 "/>
<path fill="none" stroke="black" d="M114.27,-205C120.27,-205 126.27,-211 126.27,-217"/>
<polyline fill="none" stroke="black" points="126.27,-217 126.27,-251 "/>
<path fill="none" stroke="black" d="M126.27,-251C126.27,-257 120.27,-263 114.27,-263"/>
<polyline fill="none" stroke="black" points="114.27,-263 23.2703,-263 "/>
<path fill="none" stroke="black" d="M23.2703,-263C17.2703,-263 11.2703,-257 11.2703,-251"/>
<polyline fill="none" stroke="black" points="11.2703,-251 11.2703,-217 "/>
<path fill="none" stroke="black" d="M11.2703,-217C11.2703,-211 17.2703,-205 23.2703,-205"/>
<text text-anchor="middle" x="68.7703" y="-229.4" font-family="Times New Roman,serif" font-size="14.00">Initial_1_0_A_1</text>
</g>
<!-- Initial&#45;&gt;Initial_1_0_A_1 -->
<g id="edge6" class="edge"><title>Initial&#45;&gt;Initial_1_0_A_1</title>
<path fill="none" stroke="black" d="M19.294,-332.915C13.4474,-327.388 8.31072,-321.081 4.77028,-314 -1.59009,-301.279 -1.59009,-294.721 4.77028,-282 6.8171,-277.906 9.39743,-274.071 12.34,-270.496"/>
<polygon fill="black" stroke="black" points="15.0039,-272.772 19.294,-263.085 9.89912,-267.982 15.0039,-272.772"/>
<text text-anchor="middle" x="58.2703" y="-301.4" font-family="Times New Roman,serif" font-size="14.00">send A(1) to Out;</text>
<text text-anchor="middle" x="58.2703" y="-285.4" font-family="Times New Roman,serif" font-size="14.00"> sendvar_Out == 0</text>
</g>
<!-- Initial_1_0_A_1&#45;&gt;Initial -->
<g id="edge12" class="edge"><title>Initial_1_0_A_1&#45;&gt;Initial</title>
<path fill="none" stroke="black" d="M100.736,-263.214C105.246,-268.968 109.213,-275.312 111.77,-282 116.85,-295.284 116.85,-300.716 111.77,-314 110.412,-317.553 108.655,-321.009 106.631,-324.331"/>
<polygon fill="black" stroke="black" points="103.584,-322.581 100.736,-332.786 109.326,-326.585 103.584,-322.581"/>
<text text-anchor="middle" x="165.77" y="-301.4" font-family="Times New Roman,serif" font-size="14.00">sendvar_Out := 2;</text>
<text text-anchor="middle" x="165.77" y="-285.4" font-family="Times New Roman,serif" font-size="14.00"> send A(4) to Out</text>
</g>
<!-- Final -->
<g id="node6" class="node"><title>Final</title>
<polyline fill="none" stroke="black" points="23.2703,-61 114.27,-61 "/>
<path fill="none" stroke="black" d="M114.27,-61C120.27,-61 126.27,-67 126.27,-73"/>
<polyline fill="none" stroke="black" points="126.27,-73 126.27,-107 "/>
<path fill="none" stroke="black" d="M126.27,-107C126.27,-113 120.27,-119 114.27,-119"/>
<polyline fill="none" stroke="black" points="114.27,-119 23.2703,-119 "/>
<path fill="none" stroke="black" d="M23.2703,-119C17.2703,-119 11.2703,-113 11.2703,-107"/>
<polyline fill="none" stroke="black" points="11.2703,-107 11.2703,-73 "/>
<path fill="none" stroke="black" d="M11.2703,-73C11.2703,-67 17.2703,-61 23.2703,-61"/>
<text text-anchor="middle" x="68.7703" y="-85.4" font-family="Times New Roman,serif" font-size="14.00">Final</text>
</g>
<!-- Initial_1_0_A_1&#45;&gt;Final -->
<g id="edge10" class="edge"><title>Initial_1_0_A_1&#45;&gt;Final</title>
<path fill="none" stroke="black" d="M68.7703,-204.859C68.7703,-183.097 68.7703,-153.12 68.7703,-129.248"/>
<polygon fill="black" stroke="black" points="72.2704,-129.097 68.7703,-119.097 65.2704,-129.097 72.2704,-129.097"/>
<text text-anchor="middle" x="122.27" y="-173.4" font-family="Times New Roman,serif" font-size="14.00">sendvar_Out == 2;</text>
<text text-anchor="middle" x="122.27" y="-157.4" font-family="Times New Roman,serif" font-size="14.00"> send A(3) to Out;</text>
<text text-anchor="middle" x="122.27" y="-141.4" font-family="Times New Roman,serif" font-size="14.00"> sendvar_Out == 0</text>
</g>
<!-- Final_extra -->
<g id="node5" class="node"><title>Final_extra</title>
<ellipse fill="black" stroke="black" cx="68.7703" cy="-11" rx="7" ry="7"/>
<ellipse fill="none" stroke="black" cx="68.7703" cy="-11" rx="11" ry="11"/>
</g>
<!-- Final&#45;&gt;Final_extra -->
<g id="edge4" class="edge"><title>Final&#45;&gt;Final_extra</title>
<path fill="none" stroke="black" d="M68.7703,-60.5833C68.7703,-51.2064 68.7703,-41.0169 68.7703,-32.3277"/>
<polygon fill="black" stroke="black" points="72.2704,-32.2977 68.7703,-22.2978 65.2704,-32.2978 72.2704,-32.2977"/>
</g>
</g>
</svg>
