<?xml version="1.0" encoding="UTF-8" standalone="no"?>
<!DOCTYPE svg PUBLIC "-//W3C//DTD SVG 1.1//EN"
 "http://www.w3.org/Graphics/SVG/1.1/DTD/svg11.dtd">
<!-- Generated by graphviz version 2.26.3 (20100126.1600)
 -->
<!-- Title: A_reader Pages: 1 -->
<svg width="330pt" height="120pt"
 viewBox="0.00 0.00 330.00 120.00" xmlns="http://www.w3.org/2000/svg" xmlns:xlink="http://www.w3.org/1999/xlink">
<g id="graph1" class="graph" transform="scale(1 1) rotate(0) translate(4 116)">
<title>A_reader</title>
<polygon fill="white" stroke="white" points="-4,5 -4,-116 327,-116 327,5 -4,5"/>
<!-- A_reader_is_extra -->
<g id="node1" class="node"><title>A_reader_is_extra</title>
<ellipse fill="black" stroke="black" cx="57" cy="-105" rx="7.2" ry="7.2"/>
</g>
<!-- A_reader_is -->
<g id="node2" class="node"><title>A_reader_is</title>
<polyline fill="none" stroke="black" points="11.5,-1 102.5,-1 "/>
<path fill="none" stroke="black" d="M102.5,-1C108.5,-1 114.5,-7 114.5,-13"/>
<polyline fill="none" stroke="black" points="114.5,-13 114.5,-47 "/>
<path fill="none" stroke="black" d="M114.5,-47C114.5,-53 108.5,-59 102.5,-59"/>
<polyline fill="none" stroke="black" points="102.5,-59 11.5,-59 "/>
<path fill="none" stroke="black" d="M11.5,-59C5.5,-59 -0.5,-53 -0.5,-47"/>
<polyline fill="none" stroke="black" points="-0.5,-47 -0.5,-13 "/>
<path fill="none" stroke="black" d="M-0.5,-13C-0.5,-7 5.5,-1 11.5,-1"/>
<text text-anchor="middle" x="57" y="-25.4" font-family="Times New Roman,serif" font-size="14.00">A_reader_is</text>
</g>
<!-- A_reader_is_extra&#45;&gt;A_reader_is -->
<g id="edge2" class="edge"><title>A_reader_is_extra&#45;&gt;A_reader_is</title>
<path fill="none" stroke="black" d="M57,-97.5345C57,-90.7396 57,-80.1479 57,-69.3512"/>
<polygon fill="black" stroke="black" points="60.5001,-69.0539 57,-59.054 53.5001,-69.054 60.5001,-69.0539"/>
</g>
<!-- A_reader_is&#45;&gt;A_reader_is -->
<g id="edge4" class="edge"><title>A_reader_is&#45;&gt;A_reader_is</title>
<path fill="none" stroke="black" d="M114.544,-38.4721C124.822,-37.3709 132,-34.5469 132,-30 132,-27.1582 129.196,-24.9894 124.584,-23.4936"/>
<polygon fill="black" stroke="black" points="125.031,-20.0147 114.544,-21.5279 123.686,-26.8842 125.031,-20.0147"/>
<text text-anchor="middle" x="227" y="-25.4" font-family="Times New Roman,serif" font-size="14.00">receive A(sendvar_Out) from Out</text>
</g>
</g>
</svg>
