<?xml version="1.0" encoding="UTF-8" standalone="no"?>
<!DOCTYPE svg PUBLIC "-//W3C//DTD SVG 1.1//EN"
 "http://www.w3.org/Graphics/SVG/1.1/DTD/svg11.dtd">
<!-- Generated by graphviz version 2.26.3 (20100126.1600)
 -->
<!-- Title: A Pages: 1 -->
<svg width="208pt" height="292pt"
 viewBox="0.00 0.00 207.66 292.00" xmlns="http://www.w3.org/2000/svg" xmlns:xlink="http://www.w3.org/1999/xlink">
<g id="graph1" class="graph" transform="scale(1 1) rotate(0) translate(4 288)">
<title>A</title>
<polygon fill="white" stroke="white" points="-4,5 -4,-288 204.663,-288 204.663,5 -4,5"/>
<!-- Initial_extra -->
<g id="node1" class="node"><title>Initial_extra</title>
<ellipse fill="black" stroke="black" cx="57.6633" cy="-277" rx="7.2" ry="7.2"/>
</g>
<!-- Initial -->
<g id="node2" class="node"><title>Initial</title>
<polyline fill="none" stroke="black" points="12.1633,-173 103.163,-173 "/>
<path fill="none" stroke="black" d="M103.163,-173C109.163,-173 115.163,-179 115.163,-185"/>
<polyline fill="none" stroke="black" points="115.163,-185 115.163,-219 "/>
<path fill="none" stroke="black" d="M115.163,-219C115.163,-225 109.163,-231 103.163,-231"/>
<polyline fill="none" stroke="black" points="103.163,-231 12.1633,-231 "/>
<path fill="none" stroke="black" d="M12.1633,-231C6.16333,-231 0.163333,-225 0.163333,-219"/>
<polyline fill="none" stroke="black" points="0.163333,-219 0.163333,-185 "/>
<path fill="none" stroke="black" d="M0.163333,-185C0.163333,-179 6.16333,-173 12.1633,-173"/>
<text text-anchor="middle" x="57.6633" y="-197.4" font-family="Times New Roman,serif" font-size="14.00">Initial</text>
</g>
<!-- Initial_extra&#45;&gt;Initial -->
<g id="edge2" class="edge"><title>Initial_extra&#45;&gt;Initial</title>
<path fill="none" stroke="black" d="M57.6633,-269.535C57.6633,-262.74 57.6633,-252.148 57.6633,-241.351"/>
<polygon fill="black" stroke="black" points="61.1634,-241.054 57.6633,-231.054 54.1634,-241.054 61.1634,-241.054"/>
</g>
<!-- Final -->
<g id="node5" class="node"><title>Final</title>
<polyline fill="none" stroke="black" points="12.1633,-61 103.163,-61 "/>
<path fill="none" stroke="black" d="M103.163,-61C109.163,-61 115.163,-67 115.163,-73"/>
<polyline fill="none" stroke="black" points="115.163,-73 115.163,-107 "/>
<path fill="none" stroke="black" d="M115.163,-107C115.163,-113 109.163,-119 103.163,-119"/>
<polyline fill="none" stroke="black" points="103.163,-119 12.1633,-119 "/>
<path fill="none" stroke="black" d="M12.1633,-119C6.16333,-119 0.163333,-113 0.163333,-107"/>
<polyline fill="none" stroke="black" points="0.163333,-107 0.163333,-73 "/>
<path fill="none" stroke="black" d="M0.163333,-73C0.163333,-67 6.16333,-61 12.1633,-61"/>
<text text-anchor="middle" x="57.6633" y="-85.4" font-family="Times New Roman,serif" font-size="14.00">Final</text>
</g>
<!-- Initial&#45;&gt;Final -->
<g id="edge6" class="edge"><title>Initial&#45;&gt;Final</title>
<path fill="none" stroke="black" d="M15.8443,-172.848C10.5028,-167.237 5.80996,-160.923 2.66333,-154 -1.70109,-144.398 0.738849,-135.136 6.50127,-126.78"/>
<polygon fill="black" stroke="black" points="9.21662,-128.989 12.9305,-119.067 3.83938,-124.508 9.21662,-128.989"/>
<text text-anchor="middle" x="47.1633" y="-141.4" font-family="Times New Roman,serif" font-size="14.00">send A() to Out</text>
</g>
<!-- Initial&#45;&gt;Final -->
<g id="edge8" class="edge"><title>Initial&#45;&gt;Final</title>
<path fill="none" stroke="black" d="M82.5024,-172.804C86.2703,-166.915 89.5882,-160.52 91.6633,-154 94.4081,-145.376 92.9263,-136.546 89.3763,-128.306"/>
<polygon fill="black" stroke="black" points="92.3779,-126.495 84.6045,-119.296 86.1919,-129.772 92.3779,-126.495"/>
<text text-anchor="middle" x="146.163" y="-141.4" font-family="Times New Roman,serif" font-size="14.00">receive B() from In</text>
</g>
<!-- Final_extra -->
<g id="node4" class="node"><title>Final_extra</title>
<ellipse fill="black" stroke="black" cx="57.6633" cy="-11" rx="7" ry="7"/>
<ellipse fill="none" stroke="black" cx="57.6633" cy="-11" rx="11" ry="11"/>
</g>
<!-- Final&#45;&gt;Final_extra -->
<g id="edge4" class="edge"><title>Final&#45;&gt;Final_extra</title>
<path fill="none" stroke="black" d="M57.6633,-60.5833C57.6633,-51.2064 57.6633,-41.0169 57.6633,-32.3277"/>
<polygon fill="black" stroke="black" points="61.1634,-32.2977 57.6633,-22.2978 54.1634,-32.2978 61.1634,-32.2977"/>
</g>
</g>
</svg>
