<?xml version="1.0" encoding="UTF-8" standalone="no"?>
<!DOCTYPE svg PUBLIC "-//W3C//DTD SVG 1.1//EN"
 "http://www.w3.org/Graphics/SVG/1.1/DTD/svg11.dtd">
<!-- Generated by graphviz version 2.26.3 (20100126.1600)
 -->
<!-- Title: A Pages: 1 -->
<svg width="442pt" height="452pt"
 viewBox="0.00 0.00 442.39 452.00" xmlns="http://www.w3.org/2000/svg" xmlns:xlink="http://www.w3.org/1999/xlink">
<g id="graph1" class="graph" transform="scale(1 1) rotate(0) translate(4 448)">
<title>A</title>
<polygon fill="white" stroke="white" points="-4,5 -4,-448 439.387,-448 439.387,5 -4,5"/>
<!-- Initial_extra -->
<g id="node1" class="node"><title>Initial_extra</title>
<ellipse fill="black" stroke="black" cx="197.387" cy="-437" rx="7.2" ry="7.2"/>
</g>
<!-- Initial -->
<g id="node2" class="node"><title>Initial</title>
<polyline fill="none" stroke="black" points="151.887,-333 242.887,-333 "/>
<path fill="none" stroke="black" d="M242.887,-333C248.887,-333 254.887,-339 254.887,-345"/>
<polyline fill="none" stroke="black" points="254.887,-345 254.887,-379 "/>
<path fill="none" stroke="black" d="M254.887,-379C254.887,-385 248.887,-391 242.887,-391"/>
<polyline fill="none" stroke="black" points="242.887,-391 151.887,-391 "/>
<path fill="none" stroke="black" d="M151.887,-391C145.887,-391 139.887,-385 139.887,-379"/>
<polyline fill="none" stroke="black" points="139.887,-379 139.887,-345 "/>
<path fill="none" stroke="black" d="M139.887,-345C139.887,-339 145.887,-333 151.887,-333"/>
<text text-anchor="middle" x="197.387" y="-357.4" font-family="Times New Roman,serif" font-size="14.00">Initial</text>
</g>
<!-- Initial_extra&#45;&gt;Initial -->
<g id="edge2" class="edge"><title>Initial_extra&#45;&gt;Initial</title>
<path fill="none" stroke="black" d="M197.387,-429.535C197.387,-422.74 197.387,-412.148 197.387,-401.351"/>
<polygon fill="black" stroke="black" points="200.887,-401.054 197.387,-391.054 193.887,-401.054 200.887,-401.054"/>
</g>
<!-- Initial&#45;&gt;Initial -->
<g id="edge16" class="edge"><title>Initial&#45;&gt;Initial</title>
<path fill="none" stroke="black" d="M254.931,-370.472C265.208,-369.371 272.387,-366.547 272.387,-362 272.387,-359.158 269.582,-356.989 264.97,-355.494"/>
<polygon fill="black" stroke="black" points="265.417,-352.015 254.931,-353.528 264.072,-358.884 265.417,-352.015"/>
<text text-anchor="middle" x="316.887" y="-373.4" font-family="Times New Roman,serif" font-size="14.00">recvar_In == 4;</text>
<text text-anchor="middle" x="316.887" y="-357.4" font-family="Times New Roman,serif" font-size="14.00"> recvar_In := 3;</text>
<text text-anchor="middle" x="316.887" y="-341.4" font-family="Times New Roman,serif" font-size="14.00"> send B(0) to In</text>
</g>
<!-- Initial_1_1_A_1 -->
<g id="node4" class="node"><title>Initial_1_1_A_1</title>
<polyline fill="none" stroke="black" points="85.8865,-205 176.887,-205 "/>
<path fill="none" stroke="black" d="M176.887,-205C182.887,-205 188.887,-211 188.887,-217"/>
<polyline fill="none" stroke="black" points="188.887,-217 188.887,-251 "/>
<path fill="none" stroke="black" d="M188.887,-251C188.887,-257 182.887,-263 176.887,-263"/>
<polyline fill="none" stroke="black" points="176.887,-263 85.8865,-263 "/>
<path fill="none" stroke="black" d="M85.8865,-263C79.8865,-263 73.8865,-257 73.8865,-251"/>
<polyline fill="none" stroke="black" points="73.8865,-251 73.8865,-217 "/>
<path fill="none" stroke="black" d="M73.8865,-217C73.8865,-211 79.8865,-205 85.8865,-205"/>
<text text-anchor="middle" x="131.387" y="-229.4" font-family="Times New Roman,serif" font-size="14.00">Initial_1_1_A_1</text>
</g>
<!-- Initial&#45;&gt;Initial_1_1_A_1 -->
<g id="edge6" class="edge"><title>Initial&#45;&gt;Initial_1_1_A_1</title>
<path fill="none" stroke="black" d="M139.747,-355.308C89.6929,-348.17 22.7333,-334.963 6.38653,-314 -2.3591,-302.785 -1.66833,-293.721 6.38653,-282 13.7414,-271.297 38.4855,-260.794 64.0396,-252.354"/>
<polygon fill="black" stroke="black" points="65.3774,-255.601 73.8385,-249.225 63.2477,-248.933 65.3774,-255.601"/>
<text text-anchor="middle" x="59.8865" y="-301.4" font-family="Times New Roman,serif" font-size="14.00">send A(1) to Out;</text>
<text text-anchor="middle" x="59.8865" y="-285.4" font-family="Times New Roman,serif" font-size="14.00"> sendvar_Out == 0</text>
</g>
<!-- Initial_1_0_B_1 -->
<g id="node5" class="node"><title>Initial_1_0_B_1</title>
<polyline fill="none" stroke="black" points="217.887,-205 308.887,-205 "/>
<path fill="none" stroke="black" d="M308.887,-205C314.887,-205 320.887,-211 320.887,-217"/>
<polyline fill="none" stroke="black" points="320.887,-217 320.887,-251 "/>
<path fill="none" stroke="black" d="M320.887,-251C320.887,-257 314.887,-263 308.887,-263"/>
<polyline fill="none" stroke="black" points="308.887,-263 217.887,-263 "/>
<path fill="none" stroke="black" d="M217.887,-263C211.887,-263 205.887,-257 205.887,-251"/>
<polyline fill="none" stroke="black" points="205.887,-251 205.887,-217 "/>
<path fill="none" stroke="black" d="M205.887,-217C205.887,-211 211.887,-205 217.887,-205"/>
<text text-anchor="middle" x="263.387" y="-229.4" font-family="Times New Roman,serif" font-size="14.00">Initial_1_0_B_1</text>
</g>
<!-- Initial&#45;&gt;Initial_1_0_B_1 -->
<g id="edge8" class="edge"><title>Initial&#45;&gt;Initial_1_0_B_1</title>
<path fill="none" stroke="black" d="M225.412,-332.914C230.199,-326.967 234.782,-320.523 238.387,-314 245.342,-301.416 250.652,-286.627 254.552,-273.211"/>
<polygon fill="black" stroke="black" points="258.006,-273.847 257.262,-263.278 251.253,-272.004 258.006,-273.847"/>
<text text-anchor="middle" x="295.887" y="-301.4" font-family="Times New Roman,serif" font-size="14.00">recvar_In == 1;</text>
<text text-anchor="middle" x="295.887" y="-285.4" font-family="Times New Roman,serif" font-size="14.00"> send B(2) to In</text>
</g>
<!-- Initial_1_1_A_1&#45;&gt;Initial -->
<g id="edge12" class="edge"><title>Initial_1_1_A_1&#45;&gt;Initial</title>
<path fill="none" stroke="black" d="M125.683,-263.268C124.043,-279.113 124.467,-298.549 132.387,-314 134.212,-317.562 138.453,-321.921 143.942,-326.544"/>
<polygon fill="black" stroke="black" points="142.07,-329.525 152.092,-332.963 146.402,-324.026 142.07,-329.525"/>
<text text-anchor="middle" x="183.387" y="-301.4" font-family="Times New Roman,serif" font-size="14.00">sendvar_Out := 2;</text>
<text text-anchor="middle" x="183.387" y="-285.4" font-family="Times New Roman,serif" font-size="14.00"> send A(4) to Out</text>
</g>
<!-- Final -->
<g id="node7" class="node"><title>Final</title>
<polyline fill="none" stroke="black" points="151.887,-61 242.887,-61 "/>
<path fill="none" stroke="black" d="M242.887,-61C248.887,-61 254.887,-67 254.887,-73"/>
<polyline fill="none" stroke="black" points="254.887,-73 254.887,-107 "/>
<path fill="none" stroke="black" d="M254.887,-107C254.887,-113 248.887,-119 242.887,-119"/>
<polyline fill="none" stroke="black" points="242.887,-119 151.887,-119 "/>
<path fill="none" stroke="black" d="M151.887,-119C145.887,-119 139.887,-113 139.887,-107"/>
<polyline fill="none" stroke="black" points="139.887,-107 139.887,-73 "/>
<path fill="none" stroke="black" d="M139.887,-73C139.887,-67 145.887,-61 151.887,-61"/>
<text text-anchor="middle" x="197.387" y="-85.4" font-family="Times New Roman,serif" font-size="14.00">Final</text>
</g>
<!-- Initial_1_1_A_1&#45;&gt;Final -->
<g id="edge10" class="edge"><title>Initial_1_1_A_1&#45;&gt;Final</title>
<path fill="none" stroke="black" d="M125.576,-204.66C123.124,-184.765 122.885,-158.468 133.387,-138 135.476,-133.928 138.088,-130.109 141.053,-126.545"/>
<polygon fill="black" stroke="black" points="143.716,-128.823 148.044,-119.152 138.63,-124.014 143.716,-128.823"/>
<text text-anchor="middle" x="186.887" y="-173.4" font-family="Times New Roman,serif" font-size="14.00">sendvar_Out == 2;</text>
<text text-anchor="middle" x="186.887" y="-157.4" font-family="Times New Roman,serif" font-size="14.00"> send A(3) to Out;</text>
<text text-anchor="middle" x="186.887" y="-141.4" font-family="Times New Roman,serif" font-size="14.00"> sendvar_Out == 0</text>
</g>
<!-- Initial_1_0_B_1&#45;&gt;Initial -->
<g id="edge18" class="edge"><title>Initial_1_0_B_1&#45;&gt;Initial</title>
<path fill="none" stroke="black" d="M320.967,-257.732C330.344,-264.196 338.803,-272.2 344.387,-282 351.428,-294.357 352.738,-302.488 344.387,-314 334.45,-327.697 298.657,-339.543 264.88,-348.04"/>
<polygon fill="black" stroke="black" points="263.85,-344.689 254.963,-350.457 265.508,-351.49 263.85,-344.689"/>
<text text-anchor="middle" x="391.887" y="-293.4" font-family="Times New Roman,serif" font-size="14.00">recvar_In == 4</text>
</g>
<!-- Initial_1_0_B_1&#45;&gt;Final -->
<g id="edge14" class="edge"><title>Initial_1_0_B_1&#45;&gt;Final</title>
<path fill="none" stroke="black" d="M260.23,-204.965C257.193,-185.207 251.367,-158.947 240.387,-138 238.429,-134.265 236.116,-130.59 233.594,-127.038"/>
<polygon fill="black" stroke="black" points="236.277,-124.786 227.401,-119.001 230.733,-129.059 236.277,-124.786"/>
<text text-anchor="middle" x="299.887" y="-165.4" font-family="Times New Roman,serif" font-size="14.00">recvar_In == 3;</text>
<text text-anchor="middle" x="299.887" y="-149.4" font-family="Times New Roman,serif" font-size="14.00"> send B(0) to In</text>
</g>
<!-- Final_extra -->
<g id="node6" class="node"><title>Final_extra</title>
<ellipse fill="black" stroke="black" cx="197.387" cy="-11" rx="7" ry="7"/>
<ellipse fill="none" stroke="black" cx="197.387" cy="-11" rx="11" ry="11"/>
</g>
<!-- Final&#45;&gt;Final_extra -->
<g id="edge4" class="edge"><title>Final&#45;&gt;Final_extra</title>
<path fill="none" stroke="black" d="M197.387,-60.5833C197.387,-51.2064 197.387,-41.0169 197.387,-32.3277"/>
<polygon fill="black" stroke="black" points="200.887,-32.2977 197.387,-22.2978 193.887,-32.2978 200.887,-32.2977"/>
</g>
</g>
</svg>
