<?xml version="1.0" encoding="UTF-8" standalone="no"?>
<!DOCTYPE svg PUBLIC "-//W3C//DTD SVG 1.1//EN"
 "http://www.w3.org/Graphics/SVG/1.1/DTD/svg11.dtd">
<!-- Generated by graphviz version 2.26.3 (20100126.1600)
 -->
<!-- Title: AR Pages: 1 -->
<svg width="653pt" height="131pt"
 viewBox="0.00 0.00 653.00 131.10" xmlns="http://www.w3.org/2000/svg" xmlns:xlink="http://www.w3.org/1999/xlink">
<g id="graph1" class="graph" transform="scale(1 1) rotate(0) translate(4 127.105)">
<title>AR</title>
<polygon fill="white" stroke="white" points="-4,5 -4,-127.105 650,-127.105 650,5 -4,5"/>
<!-- Zero_extra -->
<g id="node1" class="node"><title>Zero_extra</title>
<ellipse fill="black" stroke="black" cx="57" cy="-116.105" rx="7.2" ry="7.2"/>
</g>
<!-- Zero -->
<g id="node2" class="node"><title>Zero</title>
<polyline fill="none" stroke="black" points="11.5,-12.1047 102.5,-12.1047 "/>
<path fill="none" stroke="black" d="M102.5,-12.1047C108.5,-12.1047 114.5,-18.1047 114.5,-24.1047"/>
<polyline fill="none" stroke="black" points="114.5,-24.1047 114.5,-58.1047 "/>
<path fill="none" stroke="black" d="M114.5,-58.1047C114.5,-64.1047 108.5,-70.1047 102.5,-70.1047"/>
<polyline fill="none" stroke="black" points="102.5,-70.1047 11.5,-70.1047 "/>
<path fill="none" stroke="black" d="M11.5,-70.1047C5.5,-70.1047 -0.5,-64.1047 -0.5,-58.1047"/>
<polyline fill="none" stroke="black" points="-0.5,-58.1047 -0.5,-24.1047 "/>
<path fill="none" stroke="black" d="M-0.5,-24.1047C-0.5,-18.1047 5.5,-12.1047 11.5,-12.1047"/>
<text text-anchor="middle" x="57" y="-36.5047" font-family="Times New Roman,serif" font-size="14.00">Zero</text>
</g>
<!-- Zero_extra&#45;&gt;Zero -->
<g id="edge2" class="edge"><title>Zero_extra&#45;&gt;Zero</title>
<path fill="none" stroke="black" d="M57,-108.639C57,-101.844 57,-91.2527 57,-80.4559"/>
<polygon fill="black" stroke="black" points="60.5001,-80.1587 57,-70.1587 53.5001,-80.1587 60.5001,-80.1587"/>
</g>
<!-- Zero&#45;&gt;Zero -->
<g id="edge4" class="edge"><title>Zero&#45;&gt;Zero</title>
<path fill="none" stroke="black" d="M114.544,-45.3408C124.822,-44.7902 132,-43.3782 132,-41.1047 132,-39.6838 129.196,-38.5994 124.584,-37.8515"/>
<polygon fill="black" stroke="black" points="124.838,-34.3597 114.544,-36.8687 124.156,-41.3264 124.838,-34.3597"/>
<text text-anchor="middle" x="252" y="-52.5047" font-family="Times New Roman,serif" font-size="14.00">receive Acknowledge([[b]]) from AARAS;</text>
<text text-anchor="middle" x="252" y="-36.5047" font-family="Times New Roman,serif" font-size="14.00"> send Acknowledge() to AARSender;</text>
<text text-anchor="middle" x="252" y="-20.5047" font-family="Times New Roman,serif" font-size="14.00"> b := 1 &#45; b</text>
</g>
<!-- Zero&#45;&gt;Zero -->
<g id="edge6" class="edge"><title>Zero&#45;&gt;Zero</title>
<path fill="none" stroke="black" d="M113.576,-70.1745C205.524,-92.1384 372,-82.4485 372,-41.1047 372,-1.21446 217.024,9.20852 123.54,-9.83576"/>
<polygon fill="black" stroke="black" points="122.587,-6.46177 113.576,-12.0349 124.096,-13.2973 122.587,-6.46177"/>
<text text-anchor="middle" x="499.5" y="-36.5047" font-family="Times New Roman,serif" font-size="14.00">receive Acknowledge([[1 &#45; b]]) from AARAS</text>
</g>
</g>
</svg>
