<?xml version="1.0" encoding="UTF-8" standalone="no"?>
<!DOCTYPE svg PUBLIC "-//W3C//DTD SVG 1.1//EN"
 "http://www.w3.org/Graphics/SVG/1.1/DTD/svg11.dtd">
<!-- Generated by graphviz version 2.26.3 (20100126.1600)
 -->
<!-- Title: Sender Pages: 1 -->
<svg width="414pt" height="248pt"
 viewBox="0.00 0.00 413.77 248.00" xmlns="http://www.w3.org/2000/svg" xmlns:xlink="http://www.w3.org/1999/xlink">
<g id="graph1" class="graph" transform="scale(1 1) rotate(0) translate(4 244)">
<title>Sender</title>
<polygon fill="white" stroke="white" points="-4,5 -4,-244 410.765,-244 410.765,5 -4,5"/>
<!-- Zero_extra -->
<g id="node1" class="node"><title>Zero_extra</title>
<ellipse fill="black" stroke="black" cx="110.765" cy="-233" rx="7.2" ry="7.2"/>
</g>
<!-- Zero -->
<g id="node2" class="node"><title>Zero</title>
<polyline fill="none" stroke="black" points="65.2651,-129 156.265,-129 "/>
<path fill="none" stroke="black" d="M156.265,-129C162.265,-129 168.265,-135 168.265,-141"/>
<polyline fill="none" stroke="black" points="168.265,-141 168.265,-175 "/>
<path fill="none" stroke="black" d="M168.265,-175C168.265,-181 162.265,-187 156.265,-187"/>
<polyline fill="none" stroke="black" points="156.265,-187 65.2651,-187 "/>
<path fill="none" stroke="black" d="M65.2651,-187C59.2651,-187 53.2651,-181 53.2651,-175"/>
<polyline fill="none" stroke="black" points="53.2651,-175 53.2651,-141 "/>
<path fill="none" stroke="black" d="M53.2651,-141C53.2651,-135 59.2651,-129 65.2651,-129"/>
<text text-anchor="middle" x="110.765" y="-153.4" font-family="Times New Roman,serif" font-size="14.00">Zero</text>
</g>
<!-- Zero_extra&#45;&gt;Zero -->
<g id="edge2" class="edge"><title>Zero_extra&#45;&gt;Zero</title>
<path fill="none" stroke="black" d="M110.765,-225.535C110.765,-218.74 110.765,-208.148 110.765,-197.351"/>
<polygon fill="black" stroke="black" points="114.265,-197.054 110.765,-187.054 107.265,-197.054 114.265,-197.054"/>
</g>
<!-- One -->
<g id="node4" class="node"><title>One</title>
<polyline fill="none" stroke="black" points="65.2651,-1 156.265,-1 "/>
<path fill="none" stroke="black" d="M156.265,-1C162.265,-1 168.265,-7 168.265,-13"/>
<polyline fill="none" stroke="black" points="168.265,-13 168.265,-47 "/>
<path fill="none" stroke="black" d="M168.265,-47C168.265,-53 162.265,-59 156.265,-59"/>
<polyline fill="none" stroke="black" points="156.265,-59 65.2651,-59 "/>
<path fill="none" stroke="black" d="M65.2651,-59C59.2651,-59 53.2651,-53 53.2651,-47"/>
<polyline fill="none" stroke="black" points="53.2651,-47 53.2651,-13 "/>
<path fill="none" stroke="black" d="M53.2651,-13C53.2651,-7 59.2651,-1 65.2651,-1"/>
<text text-anchor="middle" x="110.765" y="-25.4" font-family="Times New Roman,serif" font-size="14.00">One</text>
</g>
<!-- Zero&#45;&gt;One -->
<g id="edge4" class="edge"><title>Zero&#45;&gt;One</title>
<path fill="none" stroke="black" d="M53.1058,-144.929C34.8061,-137.767 16.5442,-126.78 5.76513,-110 -1.92171,-98.034 -1.92171,-89.966 5.76513,-78 14.6915,-64.1045 28.7496,-54.1812 43.7112,-47.1128"/>
<polygon fill="black" stroke="black" points="45.3033,-50.238 53.1058,-43.0705 42.5367,-43.8079 45.3033,-50.238"/>
<text text-anchor="middle" x="100.765" y="-89.4" font-family="Times New Roman,serif" font-size="14.00">receive Signal(d) from ASOriginal</text>
</g>
<!-- One&#45;&gt;Zero -->
<g id="edge6" class="edge"><title>One&#45;&gt;Zero</title>
<path fill="none" stroke="black" d="M168.544,-51.5921C179.409,-58.3577 189.357,-67.0228 195.765,-78 202.935,-90.2828 202.935,-97.7172 195.765,-110 191.06,-118.061 184.444,-124.876 176.959,-130.607"/>
<polygon fill="black" stroke="black" points="174.79,-127.85 168.544,-136.408 178.763,-133.614 174.79,-127.85"/>
<text text-anchor="middle" x="303.265" y="-97.4" font-family="Times New Roman,serif" font-size="14.00">receive Acknowledge() from ASAR;</text>
<text text-anchor="middle" x="303.265" y="-81.4" font-family="Times New Roman,serif" font-size="14.00"> s := 1 &#45; s</text>
</g>
<!-- One&#45;&gt;One -->
<g id="edge8" class="edge"><title>One&#45;&gt;One</title>
<path fill="none" stroke="black" d="M168.31,-41.2961C178.587,-39.8279 185.765,-36.0625 185.765,-30 185.765,-26.1162 182.819,-23.1752 178,-21.1768"/>
<polygon fill="black" stroke="black" points="178.865,-17.7855 168.31,-18.7039 177.134,-24.5681 178.865,-17.7855"/>
<text text-anchor="middle" x="283.265" y="-25.4" font-family="Times New Roman,serif" font-size="14.00">send Message(d, s) to ASReceiver</text>
</g>
</g>
</svg>
